<svg version="1.1" id="Layer_1" xmlns="http://www.w3.org/2000/svg" xmlns:xlink="http://www.w3.org/1999/xlink" x="0px" y="0px"
	 width="160px" height="160px" viewBox="0 0 805 805" enable-background="new 0 0 805 805" xml:space="preserve">
<g>
	<polygon fill="#f54f08" points="432.502,227.027 355.833,362.043 380.907,406.405 457.576,270.426 	"/>
	<polygon fill="#f54f08" points="470.597,293.57 393.927,429.068 413.695,464.75 451.308,464.75 509.653,362.524 509.653,362.524 	
		"/>
	<polygon fill="white" points="345.706,228.957 276.27,350.952 336.545,350.952 419.964,204.365 	"/>
	<polygon fill="white" points="387.657,464.75 336.063,374.098 276.27,374.098 327.384,464.75 	"/>
	<path fill="white" d="M1.9,516.347h65.579v17.357H21.671v16.395h38.576v15.43H21.671V598.8H1.9V516.347z"/>
	<path fill="white" d="M72.301,557.331c0-23.627,16.395-42.917,43.88-42.917c27.485,0,44.362,19.29,44.362,42.917
		c0,23.628-16.395,42.917-44.362,42.917C88.696,600.73,72.301,580.959,72.301,557.331z M139.809,557.331
		c0-14.466-10.126-23.627-23.627-23.627c-13.019,0-23.146,9.645-23.146,23.627c0,14.468,10.126,23.628,23.146,23.628
		C129.201,581.442,139.809,571.799,139.809,557.331z"/>
	<path fill="white" d="M174.044,516.347h39.059c20.733,0,34.235,10.604,34.235,28.449c0,11.57-5.304,19.769-13.502,24.591v1.928
		l18.324,26.04v1.445h-22.663l-16.396-24.109h-19.287V598.8h-19.771V516.347z M212.138,533.704h-18.323v24.591h18.323
		c9.162,0,14.465-4.338,14.465-12.536C226.604,538.045,221.3,533.704,212.138,533.704z"/>
	<path fill="white" d="M300.862,549.616h41.47v9.162c0,24.109-13.02,41.47-39.54,41.47c-27.486,0-43.88-19.289-43.88-42.917
		c0-23.627,16.394-42.917,43.88-42.917c21.698,0,30.86,10.128,30.86,10.128l-11.573,14.948c0,0-7.715-6.269-19.287-6.269
		c-13.502,0-23.146,9.644-23.146,24.109c0,14.468,9.644,24.111,23.146,24.111c11.572,0,17.84-7.235,18.323-15.431v-0.966h-20.253
		V549.616z"/>
	<path fill="white" d="M413.213,565.528h-36.165v16.396h45.809v17.357h-65.578v-82.935h65.578v17.357h-45.809v16.395h36.165
		V565.528L413.213,565.528z"/>
	<path fill="white" d="M438.769,516.347h39.06c20.733,0,34.234,10.604,34.234,28.449c0,11.57-5.304,19.769-13.501,24.591v1.928
		l18.323,26.04v1.445h-22.661l-16.396-24.109h-19.289V598.8h-19.771V516.347z M476.862,533.704h-18.323v24.591h18.323
		c9.164,0,14.468-4.338,14.468-12.536C491.33,538.045,486.026,533.704,476.862,533.704z"/>
	<path fill="white" d="M523.154,557.331c0-23.627,16.395-42.917,43.879-42.917c27.486,0,44.362,19.29,44.362,42.917
		c0,23.628-16.395,42.917-44.362,42.917C539.549,600.73,523.154,580.959,523.154,557.331z M590.66,557.331
		c0-14.466-10.122-23.627-23.627-23.627c-13.017,0-23.146,9.645-23.146,23.627c0,14.468,10.13,23.628,23.146,23.628
		C580.053,581.442,590.66,571.799,590.66,557.331z"/>
	<path fill="white" d="M695.301,590.603c0,0-9.163,10.128-29.416,10.128c-27.486,0-44.363-19.288-44.363-42.916
		s16.396-42.917,44.363-42.917c20.253,0,29.416,10.127,29.416,10.127l-11.577,15.43c0,0-8.678-6.268-17.839-6.268
		c-13.985,0-24.111,9.643-24.111,24.108c0,14.469,9.645,24.11,24.111,24.11c11.573,0,17.839-6.268,17.839-6.268L695.301,590.603z"/>
	<path fill="white" d="M725.679,552.027l33.752-35.199h24.108v1.928l-31.824,33.753l31.824,44.846v1.927h-24.108
		c-7.235-10.605-14.467-21.697-21.218-32.306l-12.534,13.02v19.286h-19.771v-82.935h19.771V552.027z"/>
	<path fill="white" d="M797.525,515.381c0.962,0,2.408,0.482,3.375,0.966c0.966,0.481,1.928,1.445,2.409,2.409
		s0.966,1.929,0.966,3.377c0,0.962-0.484,2.409-0.966,3.375c-0.481,0.965-1.443,1.927-2.409,2.409
		c-0.967,0.482-1.932,0.967-3.375,0.967c-1.448,0-2.413-0.484-3.379-0.967c-0.963-0.482-1.926-1.444-2.409-2.409
		c-0.481-0.966-0.963-1.93-0.963-3.375c0-0.966,0.481-2.413,0.963-3.377c0.483-0.964,1.446-1.928,2.409-2.409
		C795.596,515.381,796.559,515.381,797.525,515.381z M797.525,516.347c-0.967,0-1.93,0-2.413,0.481
		c-0.966,0.482-1.447,0.964-1.929,1.928s-0.481,1.929-0.481,2.894s0,1.929,0.481,2.41c0.481,0.965,0.963,1.448,1.929,1.93
		c0.965,0.483,1.932,0.483,2.413,0.483c0.962,0,1.928,0,2.408-0.483c0.967-0.481,1.448-0.965,1.933-1.93
		c0.478-0.965,0.478-1.927,0.478-2.41c0-0.965,0-1.93-0.478-2.894c-0.484-0.964-0.966-1.445-1.933-1.928
		C799.453,516.828,798.487,516.347,797.525,516.347z M794.631,525.508v-7.234h1.446c1.448,0,1.929,0,2.41,0s0.966,0,0.966,0.482
		s0.48,0.482,0.48,0.482c0,0.481,0.481,0.481,0.481,0.965c0,0.481,0,0.964-0.481,1.446c-0.48,0.483-0.965,0.483-1.446,0.483
		c0,0,0.481,0,0.481,0.481c0,0.48,0.484,0.48,0.484,0.48s0,0.483,0.48,0.965l0.967,1.448h-1.932l-0.481-0.966
		c-0.481-0.964-0.481-1.447-0.962-1.447c-0.481,0-0.481-0.48-0.967-0.48h-0.481v2.894H794.631z M796.077,521.167h0.481
		c0.967,0,1.447,0,1.447,0s0.481,0,0.481-0.482v-0.481v-0.481l-0.481-0.483c0,0-0.48,0-1.447,0h-0.481V521.167z"/>
</g>
</svg>
