<?xml version="1.0" standalone="no"?><!DOCTYPE svg PUBLIC "-//W3C//DTD SVG 1.1//EN" "http://www.w3.org/Graphics/SVG/1.1/DTD/svg11.dtd"><svg t="1627065227387" class="icon" viewBox="0 0 1024 1024" version="1.1" xmlns="http://www.w3.org/2000/svg" p-id="1573" xmlns:xlink="http://www.w3.org/1999/xlink" width="200" height="200"><defs><style type="text/css">@font-face { font-family: feedback-iconfont; src: url("//at.alicdn.com/t/font_1031158_1uhr8ri0pk5.eot?#iefix") format("embedded-opentype"), url("//at.alicdn.com/t/font_1031158_1uhr8ri0pk5.woff2") format("woff2"), url("//at.alicdn.com/t/font_1031158_1uhr8ri0pk5.woff") format("woff"), url("//at.alicdn.com/t/font_1031158_1uhr8ri0pk5.ttf") format("truetype"), url("//at.alicdn.com/t/font_1031158_1uhr8ri0pk5.svg#iconfont") format("svg"); }
</style></defs><path d="M935.253333 282.453333a42.666667 42.666667 0 0 0-23.04-23.04A42.666667 42.666667 0 0 0 896 256h-213.333333a42.666667 42.666667 0 0 0 0 85.333333h110.506666L554.666667 579.84l-140.373334-140.8a42.666667 42.666667 0 0 0-60.586666 0l-256 256a42.666667 42.666667 0 0 0 0 60.586667 42.666667 42.666667 0 0 0 60.586666 0L384 529.493333l140.373333 140.8a42.666667 42.666667 0 0 0 60.586667 0L853.333333 401.493333V512a42.666667 42.666667 0 0 0 85.333334 0V298.666667a42.666667 42.666667 0 0 0-3.413334-16.213334z" p-id="1574"></path></svg>