
<svg width="800px" height="800px" viewBox="0 0 800 800" version="1.1" xmlns="http://www.w3.org/2000/svg" xmlns:xlink="http://www.w3.org/1999/xlink">
    <g id="Page-1" stroke="none" stroke-width="1" fill="none" fill-rule="evenodd">
        <g id="box-toyota-2" transform="translate(400.000000, 400.000000) scale(-1, 1) translate(-400.000000, -400.000000) " fill-rule="nonzero">
            <polygon id="Path" fill="#000" points="0 0 800 0 800 800 0 800"></polygon>
            <path d="M99.7613563,458.237357 C89.3274399,451.700596 81.6368881,429.14358 81.6368881,402.336633 C81.6368881,401.353006 81.6410384,400.38183 81.6659404,399.414804 L81.674241,399.427255 C52.6468696,394.866048 31.6752786,382.36942 31.1357364,367.585964 L31.0527299,367.760277 C23.9515242,376.588018 19.8966569,386.793667 19.8966569,397.667517 C19.8966569,429.666521 55.0208554,455.884123 99.5745917,458.204154 L99.7613563,458.237357 L99.7613563,458.237357 Z M6.47450663,400 C6.47450663,364.199299 51.0323933,335.167777 105.995144,335.167777 C160.962045,335.167777 205.519932,364.199299 205.519932,400 C205.519932,435.804852 160.962045,464.836373 105.995144,464.836373 C51.0323933,464.836373 6.47450663,435.804852 6.47450663,400 Z M105.999294,344.522609 C116.611675,344.522609 125.638631,360.621719 128.983793,383.083276 L128.992094,383.045923 C149.639959,379.833572 164.09139,372.421092 164.09139,363.792567 C164.09139,352.217311 138.081305,342.841727 105.999294,342.841727 C73.9214344,342.841727 47.9113491,352.217311 47.9113491,363.792567 C47.9113491,372.421092 62.3627799,379.829422 83.0064953,383.045923 L83.0189462,383.083276 C86.364108,360.621719 95.3910644,344.522609 105.999294,344.522609 Z M112.423997,458.200004 C156.977734,455.879973 192.106082,429.662371 192.106082,397.663367 C192.106082,386.789516 188.047065,376.583868 180.950009,367.756127 L180.862853,367.581813 C180.327461,382.36527 159.35587,394.861898 130.324348,399.423105 L130.336799,399.410654 C130.35755,400.37768 130.365851,401.348856 130.365851,402.332483 C130.365851,429.13943 122.671149,451.696445 112.241383,458.233207 L112.423997,458.200004 L112.423997,458.200004 Z M105.999294,384.747668 C110.605644,384.753049 115.210015,384.556411 119.799124,384.15821 L119.794974,384.162361 C117.595302,369.769034 112.249684,359.604889 106.003445,359.604889 C99.757206,359.604889 94.415738,369.769034 92.2119156,384.162361 L92.2077653,384.15821 C96.7942287,384.55443 101.39575,384.751065 105.999294,384.747668 Z M105.999294,438.062628 C113.98867,438.062628 120.50883,421.436427 120.853307,400.589346 L120.89481,400.601797 C110.98683,401.514628 101.015909,401.514628 91.1079292,400.601797 L91.1494324,400.589346 C91.4939094,421.436427 98.0099193,438.062628 105.999294,438.062628 L105.999294,438.062628 Z M514.316545,400 C514.316545,372.636909 536.504181,350.449273 563.867273,350.449273 C591.242815,350.449273 613.426301,372.636909 613.426301,400 C613.426301,427.371392 591.238664,449.550727 563.867273,449.550727 C536.504181,449.550727 514.316545,427.371392 514.316545,400 L514.316545,400 Z M563.867273,431.380606 C579.148768,431.380606 591.541638,417.327606 591.541638,399.99585 C591.541638,382.668244 579.148768,368.615244 563.867273,368.615244 C548.585777,368.615244 536.201208,382.668244 536.201208,399.99585 C536.201208,417.331756 548.589927,431.380606 563.867273,431.380606 L563.867273,431.380606 Z M669.6549,371.092988 L669.6549,447.301251 L648.770466,447.301251 L648.770466,371.092988 L648.845172,371.092988 L619.647637,371.092988 L619.647637,353.86499 L698.777729,353.86499 L698.777729,371.092988 L669.6549,371.092988 Z M724.036606,426.279856 L724.020005,426.300608 L716.009878,447.305402 L691.618419,447.305402 L730.170786,353.86499 L756.16012,353.86499 L794.704186,447.305402 L770.321028,447.305402 L762.310901,426.300608 L762.285999,426.279856 L724.036606,426.279856 L724.036606,426.279856 Z M743.165453,410.508622 L756.305381,410.508622 L756.29708,410.512773 L743.25261,376.314097 L743.074146,376.314097 L730.029675,410.512773 L730.021374,410.508622 L743.165453,410.508622 L743.165453,410.508622 Z M284.782834,371.092988 L284.782834,447.301251 L263.90255,447.301251 L263.90255,371.092988 L263.977256,371.092988 L234.775571,371.092988 L234.775571,353.86499 L313.909813,353.86499 L313.909813,371.092988 L284.782834,371.092988 Z M319.251281,400 C319.251281,372.636909 341.438918,350.449273 368.810309,350.449273 C396.177551,350.449273 418.365187,372.636909 418.365187,400 C418.365187,427.371392 396.177551,449.550727 368.810309,449.550727 C341.438918,449.550727 319.251281,427.371392 319.251281,400 L319.251281,400 Z M368.810309,431.380606 C384.087655,431.380606 396.480525,417.327606 396.480525,399.99585 C396.480525,382.668244 384.087655,368.615244 368.810309,368.615244 C353.528814,368.615244 341.140094,382.668244 341.140094,399.99585 C341.140094,417.331756 353.528814,431.380606 368.810309,431.380606 L368.810309,431.380606 Z M466.334641,447.301251 L476.922119,447.301251 L476.922119,411.824275 L513.34952,353.86499 L488.966362,353.86499 L466.334641,393.139513 L443.71122,353.86499 L419.328062,353.86499 L455.751313,411.824275 L455.751313,447.301251 L466.334641,447.301251 Z" id="Shape" fill="#CC2229"></path>
        </g>
    </g>
</svg>