
<svg width="800px" height="800px" viewBox="0 0 800 800" version="1.1" xmlns="http://www.w3.org/2000/svg" xmlns:xlink="http://www.w3.org/1999/xlink">
    <g id="Page-1" stroke="none" stroke-width="1" fill="none" fill-rule="evenodd">
        <rect id="Rectangle" stroke="#000" fill="#000" transform="translate(400.000000, 400.000000) scale(-1, 1) translate(-400.000000, -400.000000) " x="0.5" y="0.5" width="799" height="799"></rect>
        <g id="box-blue-cross-blue-shield" transform="translate(400.000000, 400.313628) scale(-1, 1) translate(-400.000000, -400.313628) translate(10.000000, 72.000000)" fill-rule="nonzero">
            <path d="M273.381227,320.95001 C273.392412,310.705171 281.492805,302.406186 291.481271,302.406186 C301.469737,302.406186 309.570107,310.705225 309.581275,320.950064 C309.592419,331.194904 301.510144,339.512466 291.521703,339.535366 C281.510887,339.535366 273.392387,331.217773 273.381227,320.95001 L273.381227,320.95001 Z M306.709549,320.95001 C306.858406,316.779121 305.308246,312.732823 302.430862,309.781583 C299.553478,306.830343 295.608439,305.240395 291.541927,305.393072 C282.684035,305.393072 276.29341,311.906244 276.29341,320.95001 C276.29341,330.076748 282.663812,336.589919 291.541927,336.589919 C300.339148,336.589919 306.709549,330.076748 306.709549,320.95001 Z M287.39611,331.466501 L284.746832,331.466501 L284.746832,310.226094 L293.64517,310.226094 C299.044844,310.226094 300.864959,312.300353 300.864959,316.096246 C300.864959,320.182535 298.09434,321.717486 294.474334,322.028625 L300.622277,331.466501 L297.649423,331.466501 L291.825056,322.028625 L287.39611,322.028625 L287.39611,331.466501 L287.39611,331.466501 Z M291.056563,319.560257 C293.948523,319.560257 297.972999,320.058079 297.972999,316.075503 C297.972999,313.109313 295.566403,312.715204 293.058689,312.715204 L287.39611,312.715204 L287.39611,319.581 L291.056563,319.581 M590.020513,320.95001 C590.031682,310.702467 598.136174,302.402334 608.127276,302.406151 C618.118378,302.409971 626.216836,310.716297 626.220561,320.963846 C626.224282,331.211396 618.131862,339.52391 608.140766,339.535366 C598.137847,339.523935 590.031658,331.20968 590.020513,320.95001 L590.020513,320.95001 Z M623.348835,320.95001 C623.498036,316.775381 621.945163,312.725658 619.063276,309.773736 C616.181388,306.821813 612.230945,305.23448 608.160989,305.393072 C604.085872,305.228924 600.128223,306.813048 597.238708,309.764922 C594.349193,312.716797 592.788925,316.769672 592.932697,320.95001 C592.932697,330.076748 599.303098,336.589919 608.160989,336.589919 C612.242075,336.737366 616.198662,335.134861 619.080453,332.167293 C621.962245,329.199725 623.508861,325.135227 623.348835,320.95001 L623.348835,320.95001 Z M604.035396,331.466501 L601.386118,331.466501 L601.386118,310.226094 L610.284457,310.226094 C615.68413,310.226094 617.504245,312.300353 617.504245,316.096246 C617.504245,320.182535 614.733626,321.717486 611.11362,322.028625 L617.261563,331.466501 L614.288709,331.466501 L608.464342,322.028625 L604.015173,322.028625 L604.015173,331.466501 L604.035396,331.466501 Z M607.695849,319.560257 C610.587809,319.560257 614.612285,320.058079 614.612285,316.075503 C614.612285,313.109313 612.205689,312.715204 609.697975,312.715204 L604.015173,312.715204 L604.015173,319.581 L607.695849,319.581 M234.329655,338.0419 L234.329655,245.364032 L324.688238,245.364032 L324.688238,97.1790085 L234.329655,97.1790085 L234.329655,4.52188343 L90.3585828,4.52188343 L90.3585828,97.1790085 L0,97.1790085 L0,245.364032 L90.3585828,245.364032 L90.3585828,338.0419 L234.329655,338.0419" id="Shape" fill="#00ACEC"></path>
            <path d="M79.0536482,139.286455 L138.955645,145.198092 C150.179686,146.795271 151.514436,157.975524 148.501135,164.696121 L107.487884,243.725368 L107.528331,243.600913 C85.9311731,226.255404 73.3245328,199.675764 73.3505817,171.541174 C73.3505817,160.19498 75.3729718,149.305123 79.0536482,139.265713 L79.0536482,139.286455 M162.859818,91.6407384 C152.282929,91.6407384 149.006723,103.899606 153.658127,110.226094 C157.884838,115.826592 158.693778,117.485999 158.471319,122.733873 C158.289308,127.172786 154.285055,132.628085 145.245153,132.814769 L81.7231497,132.814769 C96.3982405,100.59008 127.940556,79.9980767 162.617136,80.0041472" id="Shape" fill="#FFFFFF"></path>
            <path d="M87.9519867,152.789878 L133.272843,157.083593 C136.549049,157.332504 136.791731,158.784485 136.043462,160.692802 L104.312795,222.899813 C92.3149508,208.613938 85.7319813,190.375605 85.7677032,171.520431 C85.7677032,165.069488 86.5161184,158.805227 87.9519867,152.789878 M141.261124,95.7892553 C136.710837,103.546982 140.391513,113.607135 144.678895,118.37793 C145.467611,119.228376 145.083365,120.078822 144.355319,120.30699 L104.211678,120.30699 C113.955204,108.590708 126.837571,100.065709 141.261124,95.7892553" id="Shape" fill="#00ACEC"></path>
            <path d="M246.1604,139.286455 L186.258404,145.198092 C175.034363,146.795271 173.699612,157.975524 176.712913,164.696121 L217.726164,243.704626 L217.665494,243.58017 C239.269926,226.240691 251.878408,199.657169 251.843277,171.520431 C251.843277,160.174238 249.820853,149.284381 246.140177,139.24497 L246.1604,139.286455 M162.354231,91.6407384 C172.931119,91.6407384 176.207326,103.899606 171.555922,110.226094 C167.329211,115.826592 166.520271,117.485999 166.742729,122.733873 C166.924741,127.172786 170.928993,132.607343 179.968896,132.794026 L243.511122,132.794026 C228.832118,100.572862 197.29226,79.9824634 162.617136,79.9834059" id="Shape" fill="#FFFFFF"></path>
            <path d="M237.282285,152.789878 L191.941206,157.083593 C188.665,157.332504 188.402094,158.763742 189.170587,160.692802 L220.921477,222.899813 C232.469093,209.105995 239.4462,191.163659 239.4462,171.520431 C239.4462,165.069488 238.69793,158.805227 237.282285,152.789878 M183.973148,95.7892553 C188.503212,103.546982 184.822535,113.607135 180.555378,118.357187 C179.746438,119.228376 180.150908,120.078822 180.85873,120.30699 L221.022594,120.30699 C211.272756,108.59811 198.392727,100.074658 183.973148,95.7892553" id="Shape" fill="#00ACEC"></path>
            <path d="M162.617136,263.098942 C180.757613,263.098942 197.603785,257.560672 211.699562,248.019083 L211.699562,248.081311 L168.178598,181.373159 C165.12485,177.079444 160.250987,176.72682 157.035451,181.373159 L113.514486,248.081311 L113.514486,248.019083 C127.610263,257.560672 144.47666,263.098942 162.617136,263.098942" id="Path" fill="#FFFFFF"></path>
            <path d="M504.596463,341.65111 C567.026397,306.285003 604.844336,249.968886 624.339787,188.155984 C644.563283,124.040655 640.862383,47.479776 617.463798,0.186683261 C581.809773,18.6268409 546.297313,28.5417963 504.596463,28.6662518 C462.915837,28.7907073 427.36293,18.4401576 391.729129,0 C368.31032,47.2723501 364.649867,124.040655 384.873364,188.155984 C404.368814,249.968886 442.206976,306.285003 504.596463,341.65111" id="Path" fill="#00ACEC"></path>
            <path d="M504.535793,313.0056 C555.903474,280.377515 583.286089,233.62373 600.799637,180.833852 C616.351506,133.955611 620.153523,79.13296 603.044445,36.3202655 C577.380828,45.3640324 562.334546,48.1642813 548.380334,50.4044804 C535.356402,52.4787389 523.727891,53.7440365 504.677357,54.0136901 L504.535793,54.0136901 C489.899637,53.9573285 475.289209,52.7507265 460.832817,50.4044804 C446.878604,48.1850239 431.812099,45.3640324 406.148482,36.3202655 C389.039404,79.1122174 392.841421,133.955611 408.413514,180.833852 C425.947285,233.62373 453.309676,280.377515 504.657134,313.0056 L504.535793,313.0056" id="Path" fill="#FFFFFF"></path>
            <path d="M504.556016,300.041485 C539.299984,277.618751 578.695355,226.778677 594.409012,159.863099 C602.801763,124.351794 605.107241,84.4638042 594.227,52.8106202 C578.654908,57.06285 564.154661,60.5890894 549.148826,62.6633479 C534.142992,64.7376063 519.278722,66.2310724 504.657134,66.3347853 L504.535793,66.3347853 C489.651745,66.0650997 474.798807,64.8388835 460.064324,62.6633479 C445.038266,60.5890894 430.517795,57.06285 414.965927,52.8106202 C404.085685,84.4638042 406.411387,124.351794 414.783915,159.863099 C430.517795,226.778677 469.913167,277.639494 504.63691,300.041485 L504.556016,300.041485" id="Path" fill="#00ACEC"></path>
            <path d="M512.402733,178.469197 L513.070108,153.2877 C513.070108,153.2877 509.571444,151.773491 504.454899,151.44161 C497.720475,151.006015 494.929632,150.694877 494.929632,150.694877 L495.03075,152.852105 C495.03075,152.852105 491.410744,153.764779 490.905156,154.65671 C490.702921,155.071562 489.995099,155.631612 490.804039,157.14582 C494.383598,163.845675 496.507065,166.998548 498.185615,176.104543 C503.322383,176.789048 506.922166,177.390583 512.402733,178.469197" id="Path" fill="#FFFFFF"></path>
            <path d="M473.614067,174.424393 C472.906244,185.95727 481.238325,192.926779 493.0084,194.897324 C505.627862,196.764157 513.130779,197.656088 516.528326,198.444306 C517.50878,198.871756 518.225373,199.761476 518.449559,200.829703 C518.651794,202.032773 518.449559,202.655051 517.782183,203.484754 C517.054137,204.418171 516.063186,204.646339 516.063186,204.646339 L515.699163,218.481643 C515.699163,218.481643 520.24945,218.274217 524.658172,215.556938 C528.824212,212.984858 531.41282,209.686787 532.343101,205.600498 C533.414946,200.829703 532.666677,197.054553 529.39047,192.428957 C527.206333,189.359054 523.404315,187.118855 519.541627,185.770587 C513.737484,183.696329 502.776349,182.327318 494.545386,181.144991 C493.291529,180.97905 491.269179,180.170089 491.066944,178.282514 C490.844486,176.146028 493.372423,175.689691 493.372423,175.689691 C493.372423,175.689691 492.785941,173.698403 491.73432,170.54553 C490.51566,167.559237 489.124512,164.650115 487.568279,161.833644 C482.006818,164.322755 474.099431,166.708152 473.614067,174.424393" id="Path" fill="#FFFFFF"></path>
            <path d="M511.715134,202.032773 L511.290441,224.891101 L500.976458,219.498029 L499.803495,200.663763 C505.182945,201.306783 507.164847,201.451981 511.715134,202.032773" id="Path" fill="#FFFFFF"></path>
            <path d="M484.39319,214.623522 C481.076537,222.671645 484.029167,230.01452 492.239907,233.685957 C495.779019,235.241651 500.673105,236.714375 504.414452,238.187098 C508.054681,239.618336 514.809329,244.264675 515.314917,246.235221 C515.618269,247.479776 514.546424,248.413192 514.546424,248.413192 L514.162177,258.18295 C514.162177,258.18295 517.660842,257.311761 520.593249,254.864136 C523.666682,252.452913 525.414421,248.666821 525.2851,244.70027 C525.244653,239.390168 522.858281,236.175067 515.476705,231.736154 C509.773679,228.292885 501.987632,225.098527 496.587959,222.650902 C496.143042,222.443476 494.363374,221.323377 494.970079,219.311346 C495.273431,218.29496 496.345277,217.90085 496.345277,217.90085 L495.49589,206.471686 C495.49589,206.471686 492.60393,207.363618 490.662474,208.545945 C488.90303,209.645302 485.626824,211.678075 484.39319,214.623522" id="Path" fill="#FFFFFF"></path>
            <path d="M510.946641,248.081311 C510.987088,247.27235 510.724183,247.18938 510.36016,246.62933 C509.145426,245.365358 507.779598,244.264164 506.295237,243.352002 C504.616687,242.356358 500.996681,241.194773 500.996681,241.194773 C500.996681,241.194773 501.562939,265.857706 502.007856,278.987762 C502.108973,281.953951 503.281936,282.970338 506.093002,282.90811 C509.389432,282.82514 510.077031,281.435387 510.097254,279.610039 C510.178148,275.461523 510.76463,257.643642 510.946641,248.081311 M514.607094,84.4015764 C515.840728,85.3142502 515.860951,85.5839038 516.265421,87.4507364 C517.094584,91.5370255 515.577822,97.4694047 516.346315,100.269654 C516.750785,101.182327 517.640619,101.161585 518.307994,100.767476 C523.808785,97.7390583 527.529909,92.511927 533.050923,90.064302 C535.679978,88.9234599 543.122224,92.760838 541.443674,98.3198507 C540.654958,100.933416 540.048253,100.912674 538.349479,102.48911 C534.871038,105.745696 530.260081,109.105995 525.709794,113.56565 C522.817834,116.407384 520.047215,118.066791 517.964195,121.468575 C517.519278,122.256793 516.427209,124.393279 516.427209,124.393279 C508.722057,122.754615 500.834893,122.650902 494.868962,121.364862 L494.565609,114.644265 C494.565609,114.644265 502.270761,114.561294 503.059478,109.7905 C503.099925,109.541589 502.917913,108.110351 502.028079,107.446588 C500.810437,106.663371 499.507173,106.029823 498.145168,105.559013 C503.969535,106.492429 509.126527,108.711886 515.112682,111.408421 C515.496928,110.744659 514.505977,108.442232 514.06106,107.94441 C513.25212,106.969508 512.281392,106.264261 510.198372,105.766438 C506.558143,104.81228 497.740698,103.69218 497.740698,103.69218 L505.182945,103.381041 C507.043506,103.069903 508.964739,102.323169 509.389432,101.659407 C510.097254,100.020743 507.286188,97.4279195 505.486297,94.9388094 C504.596463,93.6942543 503.423501,91.2881145 501.825844,89.7946484 C499.884389,87.4092512 493.979128,85.1483095 493.979128,85.1483095 C493.979128,85.1483095 493.493764,81.0827629 494.464492,79.1122174 C495.172314,77.6394939 498.327179,77.4942958 499.338354,77.9921178 C503.747077,80.5641983 508.722057,83.3437046 514.607094,84.4015764" id="Shape" fill="#FFFFFF"></path>
            <path d="M539.987582,147.687202 C538.855067,141.671852 532.868912,136.009127 527.610803,133.22962 C513.939719,126.011201 498.994555,128.645509 484.999895,123.99917 C480.995643,122.650902 476.182451,120.721842 475.090382,116.034018 C474.382559,113.047086 474.423006,110.101639 476.52625,108.815598 C479.721563,106.886538 482.107935,109.977183 487.244703,111.180253 C490.480463,111.968471 493.979128,111.885501 496.507065,111.097283 C497.639581,110.744659 499.217013,110.392035 499.399025,109.520846 C499.399025,108.628915 497.538463,108.089608 496.891311,107.736984 C495.293655,106.907281 493.958904,106.928023 492.239907,106.264261 C489.428841,105.164904 486.435763,103.13213 483.58425,101.514209 C486.253752,100.933416 490.743368,100.808961 493.433093,101.140842 C495.576784,101.369011 502.169644,101.306783 504.151546,100.767476 C504.57624,100.64302 505.567191,100.269654 505.142498,99.502178 C504.374005,98.1746526 503.079701,97.6975731 502.189867,96.4737606 C500.268635,93.7979672 498.610308,90.9977183 495.49589,89.7739058 C486.516657,86.2476665 476.506027,85.3557353 467.587465,90.1057872 C455.561386,96.7501825 450.681298,111.866333 456.464542,124.55922 C461.297957,134.723086 470.540095,139.908733 481.44056,142.750467 C486.759339,144.14022 491.370297,144.928438 497.154217,145.571458 C503.787524,146.297449 509.652338,146.608587 516.063186,148.267994 C517.438384,148.620618 519.764086,149.637005 520.411238,151.068243 C521.563977,153.640324 520.876378,156.689484 517.802407,157.975524 C517.721513,163.72122 517.01369,175.689691 517.01369,175.689691 C517.01369,175.689691 544.618763,172.744244 539.987582,147.687202 L539.987582,147.687202 Z M496.385724,93.9016801 C495.804455,93.6815756 495.182797,93.5965604 494.565609,93.6527691 C493.41287,94.5032151 492.624153,95.3329185 491.350073,95.5403443 C488.822136,95.9759386 489.206382,93.6942543 487.446938,92.4496992 C486.375093,91.6822236 485.363918,92.6571251 484.433637,90.8732628 C488.114314,90.9769757 493.655552,90.9977183 496.385724,93.9016801 L496.385724,93.9016801 Z" id="Shape" fill="#FFFFFF"></path>
            <path d="M161.343056,196.453018 C162.050878,195.519602 163.021606,195.457374 163.870993,196.453018 L193.882662,243.559428 C184.035955,248.056619 173.375718,250.374852 162.596913,250.36308 C151.817665,250.37921 141.15655,248.060786 131.311163,243.559428 L161.343056,196.453018 C162.172219,195.457374 163.16317,195.519602 163.870993,196.453018" id="Path" fill="#00ACEC"></path>
            <path d="M494.646503,256.233147 C493.210635,257.70587 490.096216,260.775773 490.682698,267.226716 C491.087168,271.27152 491.936555,272.557561 493.291529,275.254097 C494.28248,277.183157 495.880136,278.01286 496.486841,275.337067 C496.850864,273.698403 495.435219,272.225679 495.90036,268.803153 C496.405947,265.339141 498.145168,264.654636 498.145168,264.654636 L497.659804,253.868492 C496.553818,254.510349 495.539764,255.306117 494.646503,256.233147" id="Path" fill="#FFFFFF"></path>
            <path d="M75.4134188,431.528728 L127.954063,431.528728 C133.252619,431.653184 139.09721,431.922838 144.53733,434.391205 C154.628855,439.410911 154.871537,449.616262 154.871537,451.794234 C154.959779,457.194873 152.900757,462.399663 149.168511,466.21033 C142.939674,472.868699 134.708711,473.843601 128.742779,474.507364 C135.234522,474.777017 145.730516,475.337067 153.819915,483.758556 C156.995004,486.890687 160.837468,492.470442 160.837468,501.327525 C160.837468,507.571043 158.855566,514.104957 153.819915,519.269861 C146.236104,527.006845 136.690613,527.297241 128.45965,527.566895 L75.4134188,527.566895 L75.4134188,524.019913 L88.2755626,524.019913 L88.2755626,435.034225 L75.4134188,435.034225 L75.4134188,431.528728 L75.4134188,431.528728 Z M109.36867,435.594275 L109.105764,472.744244 L117.862538,472.744244 C123.707129,472.744244 128.358533,470.835926 130.198871,468.388301 C132.443679,465.671023 133.636865,461.169882 133.636865,454.117403 C133.636865,438.726405 129.005685,435.884671 118.792819,435.594275 L109.36867,435.594275 Z M109.105764,476.664592 L109.36867,523.605061 L119.460194,523.605061 C124.091375,523.35615 129.005685,522.941298 133.252619,518.730554 C138.712963,513.026343 138.712963,503.215101 138.712963,499.813317 C138.712963,489.338312 136.468155,483.779299 132.342562,480.501971 C129.288814,478.054346 123.990258,476.560879 115.900859,476.664592 L109.105764,476.664592 M182.557504,431.528728 C188.786341,431.38353 190.646902,431.38353 196.471269,430.989421 L196.471269,524.040655 L205.61229,524.040655 L205.61229,527.587637 L166.884294,527.587637 L166.884294,524.040655 L176.834254,524.040655 L176.834254,435.054968 L166.884294,435.054968 L166.884294,431.528728 L182.557504,431.528728 M218.85868,461.709189 C225.775116,461.584733 227.87836,461.584733 234.390325,461.190624 L234.12742,504.314458 C234.12742,509.479361 234.390325,513.420452 235.462171,516.137731 C237.181168,520.369218 240.760727,522.277536 245.149226,522.277536 C248.99169,522.277536 252.308343,520.78407 254.836281,518.336445 C259.993272,513.026343 259.892155,505.953122 259.892155,499.958515 L259.609026,465.256171 L249.760183,465.256171 L249.760183,461.709189 C249.760183,461.709189 268.871387,461.584733 278.821347,461.190624 L278.821347,523.895457 L288.366838,523.895457 L288.366838,527.587637 L278.275313,527.587637 C269.801668,527.587637 266.74792,527.712093 260.377519,528.126945 L259.952825,517.631197 C257.182206,521.178179 250.690464,529.060361 235.684629,529.060361 C225.876233,529.060361 219.627173,525.264468 217.099236,520.078822 C215.117333,516.262186 215.258898,511.366936 215.258898,507.280647 L214.975769,465.256171 L205.288714,465.256171 L205.288714,461.709189 L218.85868,461.709189 M355.488623,508.525202 C352.050629,515.183572 344.891511,529.060361 324.829802,529.060361 C304.262506,529.060361 291.663268,512.881145 291.663268,493.98465 C291.663268,475.876374 303.615354,459.842356 324.951143,459.842356 C338.217757,459.842356 345.518439,465.691765 348.693528,469.072806 C355.99421,476.830533 356.257116,485.003111 356.39868,490.85252 L312.088999,490.85252 C312.230564,502.40614 312.493469,512.881145 318.054931,518.896495 C321.088455,522.15308 325.476954,523.522091 329.845229,523.522091 C344.163465,523.522091 349.623809,511.138768 351.484371,506.782825 L355.488623,508.525202 Z M336.114513,486.766231 C336.235854,476.146028 336.357195,463.617507 324.425332,463.617507 C313.140621,463.617507 312.61481,475.191869 312.230564,486.766231 L336.114513,486.766231 M450.842409,520.763327 C441.034014,524.434765 428.819022,528.935905 413.550282,528.935905 C386.228338,528.935905 365.944171,508.794856 365.944171,479.402614 C365.944171,447.707944 389.282086,429.330015 415.693972,429.330015 C423.783371,429.330015 436.261268,431.238332 450.316599,437.502593 L450.316599,464.592408 L446.191005,464.592408 C445.543853,459.406762 444.492232,450.985273 436.402833,442.667496 C431.258883,437.170956 424.173487,434.030782 416.745594,433.955611 C409.728041,433.955611 402.690264,436.963286 398.03886,441.713337 C391.405553,448.516905 388.493369,459.406762 388.493369,479.278158 C388.493369,498.465049 390.738178,510.309065 397.63439,517.506741 C401.476854,521.59303 407.58435,524.870359 414.885033,524.870359 C421.902586,524.870359 430.25489,521.98714 437.029761,514.665007 C444.997819,506.222775 445.9281,499.004356 446.453911,493.839452 L450.842409,493.839452 L450.842409,520.763327 M487.446938,524.040655 L497.255334,524.040655 L497.255334,527.587637 L458.385774,527.587637 L458.385774,524.040655 L468.072829,524.040655 L468.072829,465.256171 L458.385774,465.256171 L458.385774,461.709189 C458.385774,461.709189 479.337316,461.584733 486.900904,461.190624 L487.163809,474.528106 C487.969375,471.277453 489.626897,468.314891 491.956778,465.961419 C495.134982,462.526081 499.534546,460.557947 504.151546,460.506119 C512.645415,460.506119 516.224974,467.434142 516.224974,473.573947 C516.224974,481.850239 510.926418,483.239992 508.014234,483.239992 C506.699707,483.239992 499.783271,482.555486 499.783271,474.258453 C499.783271,473.573947 500.207965,470.172163 500.207965,469.508401 C500.207965,466.625181 498.205838,466.625181 497.821592,466.625181 C496.082371,466.625181 493.695999,468.803153 491.977002,471.520431 C487.588503,478.738851 487.325597,489.338312 487.184033,496.847127 L487.446938,524.040655 M587.553246,494.897324 C587.553246,516.407384 570.848638,529.039618 552.950844,529.039618 C533.455393,529.039618 519.238275,514.644265 519.238275,494.358017 C519.238275,472.993155 534.36545,460.215723 552.667715,459.925327 C574.165292,459.531218 587.553246,475.171126 587.553246,494.897324 Z M539.401101,491.661481 C539.401101,513.0056 540.735852,525.264468 553.476655,525.264468 C566.338798,525.264468 567.269079,512.860402 567.269079,494.897324 C567.269079,478.448455 566.480363,463.347853 553.355314,463.472309 C540.998757,463.493051 539.401101,476.415681 539.401101,491.661481 M601.446789,502.551338 C601.972599,506.471686 602.377069,509.769757 604.500537,513.835304 C606.60378,518.191247 612.064124,524.994814 621.46805,524.994814 C629.314767,524.994814 634.491982,520.493674 634.491982,515.059116 C634.491982,508.919311 628.647391,506.471686 620.153523,503.360299 C608.343001,498.859158 598.413264,495.18772 598.413264,480.771624 C598.413264,463.617507 613.014629,459.676416 622.155649,459.676416 C629.436108,459.676416 635.422263,461.833644 641.671323,464.032358 L641.934229,481.725783 L637.9502,481.725783 C637.540926,479.211728 636.869705,476.749999 635.948074,474.382908 C634.2493,470.711471 629.213649,464.198299 620.699557,464.198299 C613.54044,464.198299 610.345127,469.072806 610.345127,472.495333 C610.345127,476.685335 613.803345,478.469197 615.259437,479.13296 C617.36268,480.107861 627.858675,484.02821 630.245048,484.982369 C638.334446,488.384153 646.706974,493.009749 646.706974,505.517527 C646.706974,519.788426 635.826733,529.226302 619.910841,529.226302 C611.133843,529.226302 604.52076,526.757934 597.624548,524.185854 L597.341419,502.551338 L601.446789,502.551338 M659.387106,502.551338 C659.892694,506.471686 660.297164,509.769757 662.420631,513.835304 C664.544098,518.191247 669.984219,524.994814 679.408368,524.994814 C687.234861,524.994814 692.412076,520.493674 692.412076,515.059116 C692.412076,508.919311 686.587709,506.471686 678.073617,503.360299 C666.283319,498.859158 656.333358,495.18772 656.333358,480.771624 C656.333358,463.617507 670.934723,459.676416 680.095967,459.676416 C687.376426,459.676416 693.342357,461.833644 699.571194,464.032358 L699.834099,481.725783 L695.850071,481.725783 C695.447175,479.212547 694.782744,476.750856 693.868168,474.382908 C692.149171,470.711471 687.11352,464.198299 678.639875,464.198299 C671.480757,464.198299 668.265221,469.072806 668.265221,472.495333 C668.265221,476.685335 671.723439,478.469197 673.179531,479.13296 C675.323222,480.107861 685.798993,484.02821 688.185365,484.982369 C696.274764,488.384153 704.627068,493.009749 704.627068,505.517527 C704.627068,519.788426 693.746827,529.226302 677.830935,529.226302 C669.053938,529.226302 662.440854,526.757934 655.524418,524.185854 L655.261513,502.551338 L659.387106,502.551338 M75.5954303,559.033396 L128.136074,559.033396 C133.43463,559.178594 139.279221,559.448247 144.719342,561.87513 C154.810866,566.93632 155.073772,577.141672 155.073772,579.298901 C155.162014,584.69954 153.102992,589.90433 149.370746,593.714997 C143.121685,600.394109 134.890722,601.348268 128.924791,602.012031 C135.436757,602.302427 145.892304,602.820991 154.001927,611.263223 C157.177015,614.395354 161.01948,619.975109 161.01948,628.832192 C161.01948,635.096453 159.017354,641.609625 154.001927,646.795271 C146.418115,654.532255 136.892848,654.801908 128.661885,655.071562 L75.5954303,655.071562 L75.5954303,651.52458 L88.4575741,651.52458 L88.4575741,562.538892 L75.5954303,562.538892 L75.5954303,559.033396 L75.5954303,559.033396 Z M109.550681,563.098942 L109.267552,600.248911 L118.024326,600.248911 C123.868917,600.248911 128.500097,598.340593 130.360659,595.892968 C132.605467,593.154947 133.798653,588.695291 133.798653,581.62207 C133.798653,566.251815 129.167473,563.368596 118.954607,563.098942 L109.550681,563.098942 Z M109.287776,604.210745 L109.570905,651.151213 L119.662429,651.151213 C124.29361,650.88156 129.20792,650.487451 133.454854,646.255963 C138.915198,640.551753 138.915198,630.74051 138.915198,627.359469 C138.915198,616.863721 136.67039,611.304709 132.544797,608.02738 C129.511272,605.579755 124.192493,604.086289 116.103094,604.210745 L109.287776,604.210745 M182.739515,559.033396 C188.968352,558.90894 190.828914,558.90894 196.673504,558.494088 L196.673504,651.545323 L205.814525,651.545323 L205.814525,655.092305 L167.066305,655.092305 L167.066305,651.545323 L177.036489,651.545323 L177.036489,562.559635 L167.066305,562.559635 L167.066305,559.033396 L182.739515,559.033396 M219.060915,589.234599 C225.957127,589.089401 228.060371,589.089401 234.572337,588.716034 L234.309431,631.819125 C234.309431,636.984028 234.572337,640.945862 235.644182,643.66314 C237.363179,647.873885 240.942738,649.782203 245.331237,649.782203 C248.935706,649.803068 252.407815,648.390471 255.018292,645.841112 C260.195507,640.53101 260.053943,633.457789 260.053943,627.483924 L259.791037,592.760838 L249.962418,592.760838 L249.962418,589.234599 C249.962418,589.234599 269.073622,589.089401 279.023582,588.716034 L279.023582,651.420867 L288.569073,651.420867 L288.569073,655.092305 L278.477548,655.092305 C269.983679,655.092305 266.929931,655.237503 260.55953,655.631612 L260.15506,645.135864 C257.364218,648.703588 250.872475,656.585771 235.886864,656.585771 C226.078468,656.585771 219.829408,652.769135 217.321694,647.604231 C215.299345,643.787596 215.461133,638.871603 215.461133,634.806057 L215.198227,592.760838 L205.511172,592.760838 L205.511172,589.234599 L219.060915,589.234599 M354.335884,636.050612 C350.897889,642.708982 343.718548,656.585771 323.697286,656.585771 C303.12999,656.585771 290.530752,640.385812 290.530752,621.489318 C290.530752,603.401784 302.462615,587.347023 323.818627,587.347023 C337.085241,587.347023 344.406147,593.17569 347.581236,596.598216 C354.861695,604.3352 355.144824,612.507778 355.266165,618.357187 L310.976707,618.357187 C311.098048,629.931549 311.381177,640.385812 316.942639,646.401162 C320.101572,649.5297 324.364684,651.206837 328.753161,651.047501 C343.071396,651.047501 348.53174,638.643435 350.372078,634.308235 L354.335884,636.050612 Z M334.961774,614.270898 C335.103338,603.650695 335.244903,591.142916 323.292816,591.142916 C312.028329,591.142916 311.502518,602.717279 311.077825,614.270898 L334.961774,614.270898 M368.654119,622.298278 C369.321495,626.239369 369.968647,629.786351 372.233678,634.557146 C380.201736,651.420867 394.661536,651.835719 397.593943,651.835719 C408.069714,651.835719 416.947829,645.42626 416.947829,635.511305 C416.947829,625.596349 409.647147,622.298278 389.605662,613.876789 C386.430573,612.507778 383.376825,611.283966 380.464641,609.666044 C377.006423,607.757727 365.620595,600.933416 365.620595,585.293508 C365.620595,568.429786 378.725421,557.14582 397.189473,557.14582 C408.73709,557.14582 417.756769,561.066169 422.529514,563.119685 L423.864265,585.998755 L419.617331,585.998755 C417.756769,578.925534 416.684924,574.9637 412.073967,570.213649 C407.442786,565.318399 401.315066,561.895872 394.701983,561.895872 C384.610458,561.895872 379.291679,568.844638 379.291679,575.938602 C379.291679,584.629745 386.996831,588.321925 390.434825,589.960589 C394.944665,592.117818 399.454505,593.756482 403.964344,595.6648 C415.511961,600.414852 429.971761,607.488073 429.971761,626.135657 C429.971761,643.704626 416.583806,656.627256 394.155949,656.627256 C382.749896,656.627256 373.993122,653.37067 365.377913,650.23854 L364.589197,622.319021 L368.654119,622.319021 M449.264977,559.033396 C456.039848,559.033396 457.617281,558.90894 463.583212,558.494088 L463.320307,599.170297 C465.82802,595.10475 468.355958,591.267372 475.919545,588.964945 C479.094634,587.886331 482.269723,587.492222 485.6066,587.492222 C495.435219,587.492222 500.207965,591.433313 502.331432,593.466086 C507.245741,598.506534 507.629988,604.480398 507.913117,609.666044 L508.176022,651.566065 L517.337266,651.566065 L517.337266,655.113047 L478.467706,655.113047 L478.467706,651.566065 L488.680572,651.566065 L488.943477,609.396391 C488.943477,604.086289 488.943477,593.466086 478.589047,593.466086 C474.847973,593.515184 471.27797,595.08126 468.65931,597.822029 C464.129247,602.447625 463.745,608.58743 463.34053,616.44887 L463.603436,651.545323 L473.553396,651.545323 L473.553396,655.092305 L434.805177,655.092305 L434.805177,651.545323 L444.492232,651.545323 L444.492232,562.559635 L434.805177,562.559635 L434.805177,559.033396 L449.264977,559.033396 M549.007262,588.716034 L549.007262,651.545323 L558.168506,651.545323 L558.168506,655.092305 L519.420286,655.092305 L519.420286,651.545323 L529.370247,651.545323 L529.370247,592.760838 L519.420286,592.760838 L519.420286,589.234599 C519.420286,589.234599 539.846018,589.089401 549.007262,588.716034 Z M528.17706,569.114292 C528.17706,563.264883 532.949806,558.34889 538.794396,558.34889 C544.497422,558.34889 549.148826,563.098942 549.148826,569.114292 C549.148826,575.129641 544.517646,579.879693 538.794396,579.879693 C533.051344,579.700044 528.418212,575.0023 528.17706,569.114292 M626.301466,636.050612 C622.863471,642.708982 615.704354,656.585771 595.662869,656.585771 C575.075349,656.585771 562.496334,640.385812 562.496334,621.489318 C562.496334,603.401784 574.428197,587.347023 595.78421,587.347023 C609.050823,587.347023 616.351506,593.17569 619.546818,596.598216 C626.827277,604.3352 627.090182,612.507778 627.231747,618.357187 L582.942289,618.357187 C583.06363,629.931549 583.346759,640.385812 588.908221,646.401162 C592.06459,649.533827 596.329482,651.211665 600.718743,651.047501 C615.036978,651.047501 620.497322,638.643435 622.317437,634.308235 L626.301466,636.050612 L626.301466,636.050612 Z M606.94758,614.270898 C607.068921,603.650695 607.190262,591.142916 595.278622,591.142916 C583.993911,591.142916 583.4681,602.717279 583.06363,614.270898 L606.94758,614.270898 M646.868762,559.033396 C653.097599,558.90894 654.958161,558.90894 660.782528,558.494088 L660.782528,651.545323 L669.963995,651.545323 L669.963995,655.092305 L631.215776,655.092305 L631.215776,651.545323 L641.165736,651.545323 L641.165736,562.559635 L631.215776,562.559635 L631.215776,559.033396 L646.868762,559.033396 M724.021401,559.033396 C731.726554,559.033396 734.13315,558.90894 740.078858,558.494088 L740.078858,651.420867 L749.503007,651.420867 L749.503007,655.092305 C749.503007,655.092305 729.603086,655.237503 720.967653,655.631612 L720.967653,646.62933 C717.934129,650.570421 713.161384,656.565028 700.825051,656.565028 C680.92513,656.565028 672.957073,638.0419 672.957073,623.086497 C672.957073,601.742377 685.414746,588.010786 702.544048,588.010786 C710.754788,588.010786 715.143286,590.728065 718.197034,593.839452 C719.522521,595.036088 720.484322,596.598628 720.967653,598.340593 L720.704748,562.538892 L710.896352,562.538892 L710.896352,559.012653 L724.021401,559.012653 L724.021401,559.033396 Z M698.297114,596.992325 C694.454649,601.078614 693.767051,609.105995 693.767051,621.883427 C693.767051,637.544078 694.17152,650.591164 706.386512,650.591164 C710.231398,650.649035 713.928203,649.072291 716.599378,646.235221 C720.178937,642.439328 721.230559,637.668533 721.230559,620.535159 C721.230559,608.276291 721.230559,593.320888 707.175229,593.445343 C703.864863,593.31694 700.650592,594.601105 698.297114,596.992325 M701.51265,452.852105 C701.535015,442.60124 709.645292,434.304497 719.639651,434.308339 C729.63401,434.312184 737.73822,442.615162 737.753111,452.866042 C737.767961,463.116921 729.687877,471.444598 719.693573,471.478946 C709.665027,471.467543 701.534929,463.138041 701.51265,452.852105 L701.51265,452.852105 Z M734.861196,452.852105 C735.021596,448.674155 733.476541,444.616765 730.597824,441.656284 C727.719106,438.695803 723.767382,437.100291 719.693573,437.253682 C715.60771,437.096178 711.641571,438.686113 708.742731,441.643628 C705.843891,444.601143 704.272725,448.660591 704.40461,452.852105 C704.40461,461.978843 710.815458,468.512757 719.693573,468.512757 C728.531241,468.512757 734.861196,461.978843 734.861196,452.852105 Z M715.547756,463.368596 L712.898478,463.368596 L712.898478,442.128189 L721.81704,442.128189 C727.19649,442.128189 729.036829,444.202448 729.036829,448.019083 C729.036829,452.105372 726.245986,453.640324 722.62598,453.93072 L728.81437,463.368596 L725.821293,463.368596 L719.976702,453.93072 L715.547756,453.93072 L715.547756,463.368596 L715.547756,463.368596 Z M719.208209,451.483095 C722.120393,451.483095 726.165092,451.939432 726.165092,447.956855 C726.165092,444.969923 723.758496,444.596557 721.250782,444.596557 L715.56798,444.596557 L715.56798,451.483095 L719.208209,451.483095 M743.719087,574.9637 C743.741427,564.698673 751.864851,556.391501 761.873016,556.399134 C771.881181,556.406777 779.992543,564.726338 779.999995,574.991388 C780.007436,585.256439 771.908154,593.588371 761.900011,593.611284 C751.863584,593.599852 743.730232,585.257738 743.719087,574.9637 L743.719087,574.9637 Z M777.067633,574.9637 C777.216489,570.792811 775.66633,566.746513 772.788945,563.795273 C769.911561,560.844033 765.966523,559.254085 761.900011,559.406762 C753.042119,559.406762 746.611047,565.919934 746.611047,574.9637 C746.611047,584.11118 753.021896,590.645094 761.900011,590.645094 C770.717455,590.645094 777.067633,584.11118 777.067633,574.9637 L777.067633,574.9637 Z M757.754194,585.500933 L755.104916,585.500933 L755.104916,564.260527 L764.003254,564.260527 C769.402928,564.260527 771.223042,566.355528 771.223042,570.130678 C771.223042,574.23771 768.411976,575.772661 764.812194,576.063057 L771.000584,585.500933 L768.02773,585.500933 L762.183139,576.063057 L757.754194,576.063057 L757.754194,585.500933 L757.754194,585.500933 Z M761.414647,573.573947 C764.32683,573.573947 768.351306,574.071769 768.351306,570.068451 C768.351306,567.081518 765.94471,566.708152 763.45722,566.708152 L757.774417,566.708152 L757.774417,573.573947 L761.414647,573.573947" id="Shape" fill="#fff"></path>
        </g>
    </g>
</svg>