
<svg width="800px" height="800px" viewBox="0 0 800 800" version="1.1" xmlns="http://www.w3.org/2000/svg" xmlns:xlink="http://www.w3.org/1999/xlink">
    <g id="Page-1" stroke="none" stroke-width="1" fill="none" fill-rule="evenodd">
        <g id="box-home-depot" transform="translate(400.000000, 400.000000) scale(-1, 1) translate(-400.000000, -400.000000) " fill-rule="nonzero">
            <polygon id="Path" fill="#EE7125" points="0 0 800 0 800 800 0 800"></polygon>
            <path d="M177.47229,633.279468 L156.710745,654.036461 L143.054829,640.344129 L163.770854,619.59624 L110.130414,565.97856 C101.427043,557.25243 100.234427,555.609168 89.373421,561.239957 C85.3949974,563.379384 81.1024877,563.34752 77.8296197,560.038237 C70.9834536,553.196622 78.2939208,544.980313 79.245283,544.010743 L145.936227,477.328903 C146.878485,476.386645 155.103899,469.085281 161.954617,475.904135 C165.268453,479.231627 165.295764,483.474065 163.165441,487.470697 C157.493684,498.322598 159.159706,499.497007 167.890389,508.22769 L291.644855,631.995812 C300.366434,640.753807 301.554498,642.415276 312.415504,636.720759 C316.430343,634.6223 320.654574,634.640508 323.977513,637.936136 C330.805471,644.791406 323.526868,653.039579 322.593714,653.990942 L255.884562,720.659126 C254.928648,721.601384 246.675922,728.898195 239.834308,722.079341 C236.547784,718.756401 236.53868,714.509411 238.632588,710.499124 C244.318001,699.656326 242.651979,698.472813 233.921296,689.733027 L177.47229,633.279468 L177.47229,633.279468 Z M176.570999,800 L149.363862,800 L149.577805,799.572115 C155.213146,788.770285 153.574436,787.55946 144.848306,778.828778 L21.071079,655.078863 C12.3130846,646.316317 11.1523317,644.663951 0.304982134,650.312948 C0.204838746,650.367572 0.100143387,650.408539 0,650.467715 L0,623.251474 L56.858684,566.401894 C57.8009423,565.486947 66.0445638,558.15372 72.872522,564.981678 C76.1772538,568.304618 76.2091176,572.537952 74.0878986,576.54824 C68.4115893,587.427453 70.0685072,588.588206 78.8310536,597.341648 L202.590072,721.082459 C211.329859,729.849557 212.495164,731.497371 223.356169,725.834718 C227.361905,723.704395 231.613447,723.704395 234.918178,727.027335 C241.750688,733.887157 234.449325,742.117122 233.516171,743.05938 L176.570999,800 L176.570999,800 Z M516.371168,106.88941 L578.555659,44.6867105 L755.249562,221.298678 L693.037759,283.542345 C692.090948,284.484603 683.820015,291.790518 676.992057,284.953456 C673.678221,281.635068 673.678221,277.36987 675.79944,273.386895 C681.443886,262.534993 679.818832,261.346929 671.065389,252.598038 L547.279059,128.83902 C538.539272,120.126545 537.373967,118.455971 526.512962,124.127728 C522.498122,126.244395 518.251132,126.244395 514.960056,122.93056 C508.109338,116.102601 515.42891,107.818012 516.371168,106.88941 L516.371168,106.88941 Z M623.251474,0 L660.254455,0 L689.678403,29.4421558 C690.87102,30.6165646 695.136218,35.3688235 688.053349,42.4016205 C684.033958,46.4255639 680.497075,45.2466031 675.785784,42.9023374 C650.540547,29.8472813 626.943123,30.3388943 602.881398,47.7592917 L589.170858,34.0760635 L623.251474,0 Z M800,136.468125 L800,176.570999 L765.837449,210.706238 L752.167877,197.027562 C768.91003,175.560462 770.489565,147.966406 757.971641,122.725721 C756.078021,117.522817 753.701891,112.315361 757.944329,108.100234 C765.496051,100.548513 771.859708,108.350593 772.801966,109.311059 L800,136.468125 Z M668.083847,112.948085 C675.385211,100.457473 670.642056,86.7742449 663.782234,75.6628809 C661.000979,70.5009445 658.606641,65.2752805 663.540979,60.3272868 C670.842342,53.0577873 678.211985,62.7125202 680.096502,64.6015886 L731.083142,115.601885 C732.976762,117.486401 742.649703,124.833284 735.361996,132.130095 C730.395794,137.100849 725.21565,134.688304 719.989986,131.866081 C708.892278,125.033571 695.218153,120.32228 682.72299,127.578123 L668.083847,112.948085 L668.083847,112.948085 Z M448.833557,770.830963 L419.655416,800 L404.142295,800 C404.551972,799.07595 405.048137,798.124587 405.535198,797.11405 C407.292259,793.818422 403.427635,790.46817 401.447527,788.48351 L331.847873,718.89296 C329.845005,716.908301 326.540274,713.061884 323.221886,714.800737 C319.639484,716.525935 316.717118,718.651706 313.380522,715.33787 C309.939231,711.887475 312.857045,708.145754 315.515397,705.523818 L349.509525,671.525138 L448.833557,770.830963 Z M671.352163,349.655188 L703.88966,317.122243 L788.342399,401.57043 C793.240321,406.48656 793.932221,407.415163 800,404.24699 L800,419.678176 L768.163507,451.491909 C767.64003,452.019938 762.987915,456.153128 759.141498,452.283952 C757.284293,450.444955 757.275189,448.050618 758.47691,445.79284 C761.672395,439.688645 760.730136,439.037713 755.836766,434.126135 L671.352163,349.655188 Z M759.938093,322.95332 C760.46157,323.499556 763.388488,327.204862 759.391857,331.183285 C755.681999,334.88859 751.562464,332.125543 748.262285,329.571887 C740.014111,323.759019 729.389808,316.858229 717.586544,318.856545 L709.880056,311.15916 L728.993787,292.018117 L759.938093,322.95332 L759.938093,322.95332 Z M646.284453,374.745659 L665.398184,355.631928 L673.104673,363.320208 C671.097253,375.155336 678.002595,385.761431 683.851879,393.991397 C686.373671,397.314336 689.14127,401.433871 685.435965,405.139177 C681.462093,409.126704 677.752236,406.222546 677.201448,405.671757 L646.284453,374.745659 L646.284453,374.745659 Z M240.931334,402.63104 C233.857569,417.711724 240.011835,425.732299 245.924847,431.636206 L368.254546,553.97501 C374.158454,559.888021 382.197237,566.02408 397.273369,558.959419 L410.970253,572.679063 C356.519562,618.139609 292.819264,601.097025 245.806496,554.107017 C198.821039,507.089697 181.760248,443.371191 227.234449,388.934156 L240.931334,402.63104 Z M407.897672,548.380636 C414.95778,533.304504 408.812618,525.23841 402.872294,519.348158 L280.569907,396.995698 C274.652343,391.105446 266.61356,384.969388 251.551085,392.038601 L237.845096,378.35082 C292.277579,332.867515 356.009741,349.905547 402.99975,396.900107 C449.99431,443.908323 467.055102,507.604069 421.571796,562.072968 L407.897672,548.380636 L407.897672,548.380636 Z M668.311446,293.620411 C664.988506,290.347543 660.755172,290.302023 656.735781,292.446002 C645.879327,298.090448 644.723126,296.447186 635.969684,287.698295 L512.206113,163.948381 C503.448119,155.208594 501.786649,154.038737 507.476614,143.164076 C509.556866,139.171996 509.556866,134.91135 506.26579,131.602067 C499.419624,124.760452 491.180554,132.075472 490.242848,133.013178 L428.017389,195.220429 L478.835606,289.409837 L478.348545,289.860482 L380.667774,242.601907 L320.832101,302.428477 C318.01443,305.246148 310.908801,312.315361 318.219268,319.648588 C323.881922,325.329449 330.737192,319.434645 333.787013,316.821813 C338.047659,313.070988 341.844004,314.955504 347.474793,316.384824 C352.431891,317.568336 357.152286,319.935362 361.881785,322.325147 L557.288845,419.236634 L564.116804,412.41778 L468.534493,235.751189 L578.218813,345.430958 C586.9586,354.1844 588.610966,355.381569 582.948312,366.201607 C580.804333,370.234654 580.840749,374.463436 584.181897,377.77272 C590.996199,384.60523 599.253477,377.326627 600.204839,376.366161 L666.93675,309.661561 C667.879009,308.705647 675.139404,300.457473 668.311446,293.620411 L668.311446,293.620411 Z M483.701664,418.207889 L443.084416,377.595193 L390.932471,351.817375 L390.459066,352.295332 L470.027539,431.886565 C495.778046,465.170585 471.50693,471.051733 481.676036,481.220839 C488.986503,488.522202 498.167831,478.380408 500.748799,475.781232 L527.619091,448.942804 C530.195507,446.343628 540.314541,437.18506 532.990418,429.874593 C522.834968,419.700935 516.985684,443.972051 483.701664,418.207889 L483.701664,418.207889 Z M355.472609,665.530191 C377.77272,642.679291 412.290325,639.497462 448.159865,672.189726 C480.815713,701.909552 476.846394,742.809022 454.801193,764.854223 L447.10836,757.152286 C454.150261,747.970958 446.976353,740.005007 441.905456,734.97963 L385.356306,678.398616 C380.303617,673.364135 372.337665,666.194779 363.188201,673.227576 L355.472609,665.530191 L355.472609,665.530191 Z M404.993513,616.01839 L440.034595,580.972756 L539.354075,680.296789 L504.312994,715.342422 C503.780413,715.856795 499.123745,719.985434 495.277329,716.139017 C493.429228,714.281813 493.420124,711.882923 494.612741,709.634249 C497.812777,703.534606 496.879623,702.870018 491.981701,697.944785 L422.404807,628.36789 C417.488677,623.469968 416.810433,622.536814 410.724446,625.700435 C408.457564,626.929467 406.072331,626.920363 404.196918,625.049503 C400.336846,621.221294 404.460933,616.541867 404.993513,616.01839 L404.993513,616.01839 Z M446.011334,574.986913 L475.617361,545.38999 L502.57414,572.319457 C503.238728,572.988597 505.646721,575.637845 501.654642,579.634477 C499.38776,581.892255 497.416756,581.236771 494.7493,579.903043 C480.524387,572.60168 467.269044,572.870246 453.699615,582.670642 L446.011334,574.986913 Z M537.628878,666.61356 C547.05146,654.54173 547.993718,638.996745 540.947265,624.76728 C539.904864,621.849466 538.548376,618.945308 540.933609,616.550971 C545.203359,612.299429 548.790313,616.673874 549.31379,617.215559 L575.888204,643.78542 L545.349022,674.324601 L537.628878,666.61356 L537.628878,666.61356 Z M490.361199,619.336778 C494.476182,612.313085 491.826934,604.629356 487.98507,598.379498 C486.373671,595.443476 485.044496,592.512006 487.84851,589.721647 C491.968045,585.624872 496.096684,591.073583 497.157293,592.12964 L525.848374,620.825273 C526.890775,621.867674 532.34859,625.996313 528.215399,630.111296 C525.452352,632.906207 522.520882,631.572479 519.589412,629.970185 C513.357762,626.137424 505.660377,623.469968 498.623028,627.598607 L490.361199,619.336778 Z M526.868016,494.14844 C539.486082,481.525821 548.244077,475.398867 558.085441,472.767827 C573.757881,468.766643 586.375947,473.691877 597.541935,484.821449 C608.671507,495.964677 613.587637,508.605503 609.604661,524.273391 C606.937206,534.110203 600.837563,542.886406 588.214944,555.486264 L580.517559,547.802535 C586.89032,538.475545 581.864943,532.644468 575.360175,526.11694 L555.308738,506.070055 C549.331998,500.111523 542.681567,495.855429 534.569952,501.836721 L526.868016,494.14844 L526.868016,494.14844 Z M503.225072,547.543073 C498.318046,542.626943 497.648906,541.702893 491.535608,544.871065 C489.286934,546.086442 486.897148,546.05913 485.035392,544.192822 C481.193527,540.355509 485.313062,535.703393 485.836539,535.170813 L520.891276,500.138835 L605.362223,584.60523 C610.251041,589.494048 610.929285,590.449962 617.03348,587.245374 C619.300362,586.057309 621.681043,586.043653 623.551904,587.90541 C627.42108,591.76093 623.292441,596.413046 622.759861,596.927419 L585.178779,634.517605 C584.655302,635.068393 581.045588,638.127319 577.185516,634.285454 C575.337415,632.419146 575.005121,630.338894 576.197738,628.081116 C579.38867,621.981473 577.718096,622.045201 572.81107,617.119967 L503.225072,547.543073 L503.225072,547.543073 Z" id="Shape" fill="#FFFFFF"></path>
            <path d="M611.038532,421.417029 C607.046453,429.911009 610.487744,434.408357 613.80158,437.726745 L682.595535,506.502492 C685.913922,509.82088 690.438583,513.275827 698.923459,509.283747 L706.625395,516.981132 C675.958759,542.626943 640.102875,533.072354 613.683228,506.639051 C587.240822,480.214853 577.690785,444.36352 603.313836,413.683228 L611.038532,421.417029 Z M704.90475,503.325216 C708.887726,494.831236 705.437331,490.329335 702.114391,486.988188 L633.338644,418.221544 C630.015704,414.889501 625.5047,411.44821 617.006168,415.412978 L609.317887,407.729249 C639.998179,382.08799 675.84496,391.665339 702.25095,418.084985 C728.688804,444.509184 738.266154,480.337756 712.624895,511.036256 L704.90475,503.325216 Z M95.8690853,302.92009 L126.444682,272.344493 L205.821972,351.721783 C210.442224,356.342035 211.065844,357.216014 216.805881,354.220816 C218.9271,353.091927 221.171222,353.091927 222.91918,354.844436 C226.537998,358.458702 222.668821,362.828595 222.172656,363.32476 L186.853904,398.657168 C186.353188,399.144229 181.987846,403.02251 178.369028,399.394588 C176.616519,397.651182 176.616519,395.40706 177.745408,393.276737 C180.736054,387.5367 179.866627,386.917632 175.246375,382.29738 L95.8690853,302.92009 Z M179.115552,277.834172 C179.616269,278.334889 182.356556,281.821699 178.614835,285.572524 C175.114368,289.068439 171.245192,286.437399 168.131643,284.074925 C160.39329,278.580695 150.406264,272.085031 139.299451,273.960443 L132.061816,266.722808 L150.037554,248.756174 L179.115552,277.834172 L179.115552,277.834172 Z M72.2762137,326.50841 L90.2519517,308.532672 L97.4850354,315.774859 C95.6141748,326.881671 102.100735,336.868698 107.594966,344.611603 C109.966543,347.734256 112.588479,351.59888 109.097116,355.090243 C105.346291,358.841068 101.854929,356.091677 101.354212,355.586408 L72.2762137,326.50841 L72.2762137,326.50841 Z M270.719439,286.824317 C275.344243,291.444568 275.963311,292.309443 281.7079,289.318797 C283.824567,288.199012 286.073241,288.199012 287.825751,289.942418 C291.435464,293.561235 287.566288,297.931129 287.070123,298.431846 L251.755923,333.746045 C251.255206,334.251314 246.885313,338.120491 243.266495,334.501673 C241.527642,332.749164 241.518538,330.500489 242.647427,328.374718 C245.642625,322.639233 244.768646,322.020165 240.152946,317.395362 L174.745659,252.00173 C170.129959,247.376926 169.501787,246.507499 163.76175,249.502697 C161.635979,250.622482 159.391857,250.622482 157.648451,248.874525 C154.029633,245.255707 157.89881,240.885814 158.394975,240.389649 L193.718278,205.066345 C194.218995,204.579284 198.584337,200.701004 202.203155,204.319822 C203.955664,206.072331 203.955664,208.321005 202.822223,210.437672 C199.831577,216.177709 200.705556,216.801329 205.325807,221.417029 L270.719439,286.824317 L270.719439,286.824317 Z M257.491408,240.394201 L246.507499,251.382662 L239.269864,244.135922 L250.253772,233.156565 L221.922298,204.820538 C217.302046,200.204839 216.678426,199.326308 210.938389,202.326058 C208.81717,203.450395 206.573048,203.450395 204.820538,201.697886 C201.201721,198.079068 205.075449,193.713726 205.571614,193.208458 L240.890366,157.894258 C241.391083,157.398093 245.760976,153.528916 249.379794,157.147734 C251.123199,158.895692 251.123199,161.139814 250.003414,163.261033 C247.008216,169.00107 247.882195,169.629242 252.497895,174.244942 L317.896078,239.643125 C322.51633,244.263377 323.135398,245.128252 328.879987,242.142158 C331.001206,241.017821 333.245329,241.017821 334.993286,242.765778 C338.616656,246.384596 334.742927,250.754489 334.251314,251.246102 L298.928011,286.573958 C298.431846,287.074675 294.066504,290.939299 290.438583,287.320482 C288.695177,285.581628 288.695177,283.332954 289.814962,281.207183 C292.81016,275.462594 291.936181,274.843526 287.320482,270.223274 L257.491408,240.394201 Z M252.652662,146.136514 L285.604388,113.189339 L378.960785,206.541184 L346.01361,239.488358 C345.517445,239.979971 341.152104,243.8537 337.524182,240.234882 C335.780777,238.491476 335.780777,236.242802 336.900562,234.126135 C339.89576,228.376994 339.026333,227.757926 334.406081,223.137674 L269.003346,157.734939 C264.387646,153.119239 263.759474,152.240708 258.019437,155.235906 C255.898218,156.364795 253.654096,156.364795 251.906138,154.616838 C248.28732,150.99802 252.156497,146.628127 252.652662,146.136514 L252.652662,146.136514 Z M291.230626,107.567654 L319.056831,79.741448 L344.388556,105.073173 C345.007625,105.701345 347.251747,108.191274 343.51913,111.932995 C341.393359,114.058766 339.52705,113.430594 337.032569,112.183353 C323.667979,105.328083 311.186472,105.569338 298.463709,114.805289 L291.230626,107.567654 L291.230626,107.567654 Z M377.340283,193.681863 C386.193868,182.329244 387.076951,167.721966 380.462936,154.366479 C379.45695,151.617088 378.209709,148.872249 380.462936,146.628127 C384.450463,142.636047 387.823475,146.75103 388.324191,147.256299 L413.282655,172.21021 L384.577918,200.919498 L377.340283,193.681863 L377.340283,193.681863 Z M332.908483,149.245511 C336.777659,142.636047 334.278626,135.398411 330.659808,129.530919 C329.166761,126.78608 327.914969,124.041241 330.536905,121.419305 C334.410633,117.550129 338.27981,122.661993 339.276692,123.667979 L366.233471,150.624758 C367.234905,151.62164 372.346769,155.495368 368.486697,159.359993 C365.860209,161.977377 363.110818,160.734688 360.365979,159.232537 C354.498486,155.622824 347.260851,153.123791 340.646835,156.997519 L332.908483,149.245511 L332.908483,149.245511 Z M747.019596,767.480711 C747.019596,754.571318 756.961103,745.057696 768.714295,745.057696 C780.362792,745.057696 790.308851,754.571318 790.308851,767.480711 C790.308851,780.513007 780.349136,790.026629 768.714295,790.026629 C756.970207,790.026629 747.019596,780.513007 747.019596,767.480711 Z M768.714295,786.271252 C778.391788,786.271252 786.025446,778.305301 786.025446,767.467055 C786.025446,756.819992 778.391788,748.799417 768.714295,748.799417 C758.945763,748.799417 751.316658,756.819992 751.325754,767.467055 C751.325754,778.305301 758.945763,786.271252 768.714295,786.271252 Z M764.207843,780.513007 L760.48433,780.513007 L760.475226,754.571318 L769.861392,754.571318 C775.683365,754.571318 778.555659,756.829096 778.555659,761.950065 C778.555659,766.588524 775.792612,768.618704 772.182898,769.083005 L779.188383,780.513007 L775.000569,780.513007 L768.495801,769.269636 L764.207843,769.269636 L764.207843,780.513007 L764.207843,780.513007 Z M768.659672,765.93304 C771.832396,765.93304 774.650067,765.691786 774.650067,761.70881 C774.650067,758.49967 771.88702,757.903362 769.274188,757.903362 L764.189635,757.903362 L764.194187,765.93304 L768.659672,765.93304 Z" id="Shape" fill="#FFFFFF"></path>
        </g>
    </g>
</svg>