
<svg width="2500px" height="2500px" viewBox="0 0 2500 2500" version="1.1" xmlns="http://www.w3.org/2000/svg" xmlns:xlink="http://www.w3.org/1999/xlink">
    <g id="Page-1" stroke="none" stroke-width="1" fill="none" fill-rule="evenodd">
        <g id="box-hsbc" transform="translate(1250.000000, 1250.000000) scale(-1, 1) translate(-1250.000000, -1250.000000) " fill-rule="nonzero">
            <g transform="translate(1250.000000, 1250.000000) scale(-1, 1) translate(-1250.000000, -1250.000000) ">
                <polygon id="Path" fill="#000" points="0 0 2500 0 2500 2500 0 2500"></polygon>
                <path d="M404.617755,1102.39111 C404.31945,1102.39111 404.617755,1241.10274 404.617755,1241.10274 C404.617755,1258.54708 389.611737,1273.77358 369.988483,1273.77358 L351.208263,1273.77358 L351.208263,1280.89398 L510.334309,1280.89398 L510.334309,1273.77358 L491.52815,1273.77358 C472.19023,1273.77358 456.924817,1258.27471 456.924817,1241.10274 L456.924817,1100.22516 L456.924817,932.111063 C456.924817,915.224429 471.878956,899.427255 491.52815,899.427255 L510.334309,899.427255 L510.334309,892.371703 L351.208263,892.371703 L351.208263,899.427255 L369.988483,899.427255 C389.884102,899.427255 404.617755,915.224429 404.617755,932.111063 L404.617755,1082.76785 L216.050343,1082.76785 L216.050343,932.111063 C216.050343,915.224429 231.289817,899.427255 250.640706,899.427255 L269.420926,899.427255 L269.420926,892.371703 L110.294881,892.371703 L110.294881,899.427255 L129.139949,899.427255 C148.776173,899.427255 163.756251,915.224429 163.756251,932.111063 L163.756251,1241.11571 C163.756251,1258.27471 148.776173,1273.78655 129.139949,1273.78655 L110.294881,1273.78655 L110.294881,1280.90695 L269.420926,1280.90695 L269.420926,1273.78655 L250.640706,1273.78655 C231.289817,1273.78655 216.050343,1258.28768 216.050343,1241.11571 C216.050343,1241.11571 216.322709,1102.40408 216.050343,1102.40408 L404.617755,1102.40408 L404.617755,1102.39111 L404.617755,1102.39111 Z M783.023615,1179.22399 C784.42435,1202.05078 770.274336,1236.66708 750.586233,1254.43566 C731.702256,1271.45199 704.828903,1286.30237 668.863745,1286.30237 C628.021955,1286.30237 592.860923,1264.48723 580.020855,1259.55872 C572.277906,1256.58864 562.12258,1256.97773 556.05273,1260.70006 C548.984208,1265.0579 544.626367,1272.12642 542.966237,1285.22588 L536.987175,1285.22588 L536.987175,1150.57378 L542.966237,1150.57378 C548.426508,1192.01218 567.751458,1216.31752 579.76146,1230.19517 C599.384714,1252.77553 636.439333,1265.58966 672.145095,1259.89593 C700.497001,1255.29166 731.546619,1224.52738 728.109631,1186.40924 C726.916412,1172.66129 723.855548,1152.70082 695.296126,1133.97248 C677.345971,1122.24782 651.873353,1105.62058 627.710681,1089.58995 C597.205794,1069.34414 569.541285,1047.46415 561.733487,1038.59283 C551.591131,1027.01083 538.893731,1010.26687 538.893731,983.56212 C538.893731,960.696424 547.583473,934.523439 566.143207,917.092075 C584.664031,899.660711 609.747556,886.574218 645.699745,886.574218 C681.664903,886.574218 708.914379,905.665712 718.187761,910.010583 C727.461143,914.355455 737.694287,913.330843 743.504742,910.010583 C749.250348,906.716263 753.063458,901.774783 754.710619,888.779078 L760.650771,888.779078 L760.650771,1016.24593 L754.710619,1016.24593 C749.250348,974.846438 731.261284,943.783851 718.719521,932.318579 C706.177758,920.892216 681.664903,905.095042 645.167984,912.202474 C610.12368,918.933782 593.081409,934.795804 589.838967,962.836436 C587.400652,984.184669 598.982652,997.37492 605.662081,1005.35132 C619.293303,1021.73214 705.749756,1070.693 744.879537,1104.53112 C765.073461,1121.98842 780.883604,1142.7141 783.023615,1179.22399 L783.023615,1179.22399 Z M1035.06506,1082.48252 C1104.29766,1106.2561 1124.03764,1155.16508 1111.18461,1205.48777 C1096.10077,1264.74662 1029.31945,1276.8085 1007.64697,1279.68779 C997.88074,1280.90695 972.939883,1280.77725 948.27139,1280.80319 C904.226068,1280.88101 848.559837,1280.72537 803.827118,1280.72537 L803.827118,1273.60497 L826.718753,1273.60497 C841.283799,1273.60497 857.936977,1261.34854 857.936977,1242.80178 L857.936977,932.629853 C857.936977,914.08309 841.283799,901.541327 826.87439,901.541327 L803.982755,901.541327 L803.982755,894.420926 L942.110751,894.420926 C975.352259,894.420926 993.406172,897.650397 1005.05302,899.946046 C1024.67627,903.720247 1081.91185,920.632821 1095.50416,974.042313 C1106.04858,1015.40289 1085.45259,1067.54135 1035.06506,1082.48252 L1035.06506,1082.48252 Z M909.686339,1071.61385 C928.764863,1076.49049 984.923945,1077.78746 1006.71315,1063.97466 C1040.84957,1042.26328 1052.678,1007.51728 1046.40063,976.727054 C1042.61346,958.271078 1032.82129,941.202868 1015.97356,929.387412 C982.719085,905.964017 934.795804,909.725249 909.699309,917.36444 L909.699309,1071.61385 L909.686339,1071.61385 L909.686339,1071.61385 Z M909.686339,1258.89726 C936.611571,1267.26276 987.842142,1273.61794 1023.56087,1248.06751 C1066.41298,1217.39401 1075.43993,1142.46768 1014.94895,1103.41572 C990.604702,1087.67042 929.854324,1088.78582 909.686339,1093.49385 L909.686339,1258.89726 Z M1475.38857,899.115981 L1481.01745,1030.74612 L1473.11887,1031.01849 C1469.29278,997.764013 1456.8029,974.301708 1440.96682,959.101143 C1436.37552,954.665484 1427.7636,945.781195 1415.29965,937.960427 C1394.57397,924.873934 1363.69296,913.291934 1327.0404,919.841665 C1272.02266,929.646807 1243.65778,966.039968 1229.54668,1001.04536 C1212.0375,1044.10498 1201.0132,1117.65652 1230.55832,1179.80763 C1254.60427,1230.20814 1300.75069,1251.18025 1336.28785,1256.57567 C1366.6371,1261.25776 1433.83345,1259.84405 1485.1159,1190.66333 L1493.29982,1196.11063 C1453.50858,1252.26971 1400.61788,1288.23487 1340.10096,1287.70311 C1262.76225,1286.96383 1214.16454,1244.39706 1191.92139,1219.04117 C1168.45909,1192.3494 1150.50893,1141.66355 1150.27069,1097.47556 C1150.10687,1058.24203 1158.74473,1014.54689 1172.8299,989.009421 C1197.09633,945.197555 1247.78217,901.554297 1314.55052,895.069414 C1364.51005,890.127934 1397.33653,899.959016 1425.42904,916.002615 C1439.5142,924.056839 1447.36091,924.977692 1455.01307,921.76119 C1462.61336,918.47984 1468.74805,911.969018 1468.74805,899.115981 L1475.38857,899.115981 L1475.38857,899.115981 Z" id="Shape" fill="#fff"></path>
                <path d="M1609.10685,1086.80145 L1803.25126,1280.89398 L1803.25126,892.631098 L1609.10685,1086.80145 Z M1803.25126,1280.89398 L2191.4882,1280.89398 L1997.39567,1086.80145 L1803.25126,1280.89398 Z M1997.39567,1086.80145 L2191.4882,892.631098 L1803.25126,892.631098 L1997.39567,1086.80145 Z M2191.54008,892.631098 L2191.54008,1280.89398 L2385.63261,1086.80145 L2191.54008,892.631098 Z M402.970595,1543.98566 C402.970595,1525.80205 413.359377,1511.00355 430.82965,1511.00355 C451.166241,1511.00355 459.609558,1525.41296 459.142647,1543.98566 L402.970595,1543.98566 Z M1733.43502,1556.16427 C1733.9149,1576.70838 1729.31063,1598.16037 1704.4865,1598.16037 C1692.10038,1598.16037 1682.59354,1591.29936 1682.59354,1577.56438 C1682.59354,1561.40405 1699.5969,1556.78682 1712.43697,1556.16427 L1733.43502,1556.16427 Z M1437.43904,1554.54305 C1437.43904,1530.93808 1445.57108,1511.00355 1470.57679,1511.00355 C1495.5825,1511.00355 1503.74048,1530.93808 1503.74048,1554.54305 C1503.74048,1578.27772 1495.5825,1598.16037 1470.57679,1598.16037 C1445.57108,1598.16037 1437.43904,1578.27772 1437.43904,1554.54305 Z M1049.27992,1554.37444 C1049.27992,1533.55797 1055.45353,1510.36803 1080.69269,1510.36803 C1104.55706,1510.36803 1112.10546,1534.20646 1112.10546,1554.37444 C1112.10546,1575.17795 1106.11343,1598.78292 1080.69269,1598.78292 C1057.03584,1598.78292 1049.27992,1575.16498 1049.27992,1554.37444 Z M779.884932,1554.54305 C779.884932,1530.93808 788.094793,1511.00355 813.048621,1511.00355 C838.080267,1511.00355 846.277159,1530.93808 846.277159,1554.54305 C846.277159,1578.27772 838.093237,1598.16038 813.048621,1598.16038 C788.094793,1598.17334 779.884932,1578.27772 779.884932,1554.54305 Z M163.84704,1469.40951 L110.294881,1469.40951 L110.294881,1450.38287 L239.512648,1450.38287 L239.512648,1469.40951 L185.973459,1469.40951 L185.973459,1610.13146 L163.84704,1610.13146 L163.84704,1469.40951 L163.84704,1469.40951 Z M2297.06209,1610.13146 L2297.06209,1450.39584 L2318.08608,1450.39584 L2318.08608,1544.37475 L2359.65417,1499.0584 L2386.86474,1499.0584 L2339.97904,1546.20349 L2389.70512,1610.14443 L2362.54643,1610.14443 L2318.54002,1550.18521 L2318.08608,1550.18521 L2318.08608,1610.14443 L2297.06209,1610.14443 L2297.06209,1610.13146 L2297.06209,1610.13146 Z M2186.67642,1515.46515 L2187.13036,1515.46515 C2194.25076,1501.48374 2209.67181,1495.77704 2220.72205,1495.77704 C2228.47797,1495.77704 2262.79597,1497.69657 2262.79597,1533.33748 L2262.79597,1610.11849 L2241.77198,1610.11849 L2241.77198,1540.19849 C2241.77198,1521.8333 2233.99012,1511.89846 2216.31233,1511.89846 C2216.31233,1511.89846 2204.83409,1511.18513 2196.00168,1520.05644 C2192.88894,1523.16919 2187.13036,1527.98097 2187.13036,1549.69236 L2187.13036,1610.10552 L2166.10637,1610.10552 L2166.10637,1499.03246 L2186.67642,1499.03246 L2186.67642,1515.46515 Z M2111.54257,1556.16427 C2111.94463,1576.70838 2107.34037,1598.16037 2082.54218,1598.16037 C2070.15605,1598.16037 2060.64921,1591.29936 2060.64921,1577.56438 C2060.64921,1561.40405 2077.66555,1556.78682 2090.4667,1556.16427 L2111.54257,1556.16427 L2111.54257,1556.16427 Z M2092.48999,1541.50844 C2066.17433,1541.50844 2038.50983,1550.60024 2038.50983,1581.83143 C2038.50983,1603.49094 2057.96447,1613.45172 2077.2116,1613.45172 C2092.48999,1613.45172 2104.85017,1607.47266 2111.73712,1593.51719 L2112.13918,1593.51719 C2112.39858,1598.61431 2112.82658,1603.50391 2113.30646,1608.53618 C2113.48804,1611.22092 2117.28818,1610.13146 2119.23364,1610.13146 L2133.37069,1610.13146 C2132.85815,1602.32929 2132.57269,1594.51387 2132.51468,1586.6951 L2132.51468,1533.545 C2132.51468,1502.58617 2109.97323,1495.77704 2087.17238,1495.77704 C2065.26645,1495.77704 2046.23981,1504.36303 2045.12441,1528.6554 L2067.28973,1528.6554 C2067.49725,1517.17716 2077.44506,1511.00355 2088.0673,1511.00355 C2110.4142,1511.00355 2111.55554,1522.27427 2111.55554,1541.50844 L2092.48999,1541.50844 L2092.48999,1541.50844 Z M1993.11565,1554.54305 C1993.11565,1575.35952 1985.35973,1598.16037 1961.70288,1598.16037 C1936.26917,1598.16037 1930.29011,1575.35952 1930.29011,1554.54305 C1930.29011,1534.47882 1937.78663,1511.00355 1961.70288,1511.00355 C1986.92907,1511.00355 1993.11565,1533.8044 1993.11565,1554.54305 Z M1930.71811,1593.50422 L1930.29011,1592.41476 L1930.71811,1592.41476 C1938.21463,1607.91363 1952.88344,1613.43875 1969.01783,1613.43875 C2001.974,1613.43875 2015.21613,1583.11544 2015.21613,1554.54305 C2015.21613,1524.47913 1999.7432,1495.77704 1965.23065,1495.77704 C1951.06767,1495.77704 1937.13814,1500.84822 1930.70514,1514.14223 L1930.27714,1514.14223 L1930.27714,1450.38287 L1909.30503,1450.38287 L1909.30503,1592.41476 C1909.30503,1596.79854 1908.61763,1603.49094 1908.13775,1610.11849 L1929.84914,1610.11849 L1930.71811,1593.50422 L1930.71811,1593.50422 Z M1789.80161,1610.13146 L1789.80161,1450.39584 L1810.77372,1450.39584 L1810.77372,1610.13146 L1789.80161,1610.13146 Z M1714.44728,1541.50844 C1688.13163,1541.50844 1660.46712,1550.60024 1660.46712,1581.83143 C1660.46712,1603.49094 1679.97365,1613.45172 1699.19484,1613.45172 C1714.44728,1613.45172 1726.83341,1607.47266 1733.69441,1593.51719 L1734.09647,1593.51719 C1734.36884,1598.61431 1734.75793,1603.50391 1735.21187,1608.53618 C1735.41939,1611.22092 1739.24547,1610.13146 1741.19094,1610.13146 L1755.35392,1610.13146 C1754.81494,1602.33067 1754.52945,1594.51443 1754.49791,1586.6951 L1754.49791,1533.545 C1754.49791,1502.58617 1731.93052,1495.77704 1709.12968,1495.77704 C1687.23671,1495.77704 1668.22304,1504.36303 1667.10764,1528.6554 L1689.27297,1528.6554 C1689.45454,1517.17716 1699.40235,1511.00355 1710.02459,1511.00355 C1732.3715,1511.00355 1733.46096,1522.27427 1733.46096,1541.50844 L1714.44728,1541.50844 L1714.44728,1541.50844 Z M1620.26085,1534.6604 C1619.14545,1520.73087 1612.50493,1511.00355 1597.51188,1511.00355 C1577.3439,1511.00355 1569.60095,1528.46085 1569.60095,1554.54305 C1569.60095,1580.6901 1577.35687,1598.16037 1597.51188,1598.16037 C1611.46735,1598.16037 1620.05333,1589.06856 1621.16873,1573.15466 L1642.16678,1573.15466 C1640.36398,1598.16037 1621.83019,1613.42578 1597.25249,1613.42578 C1561.61157,1613.42578 1547.47453,1588.14771 1547.47453,1555.4639 C1547.47453,1522.90979 1563.84237,1495.75111 1599.02934,1495.75111 C1622.46571,1495.75111 1640.16944,1510.54961 1641.28484,1534.63446 L1620.26085,1534.63446 L1620.26085,1534.6604 L1620.26085,1534.6604 Z M1470.57679,1495.77704 C1434.10581,1495.77704 1415.27371,1520.06941 1415.27371,1554.54305 C1415.27371,1589.06856 1434.09284,1613.43875 1470.57679,1613.43875 C1507.09965,1613.43875 1525.95769,1589.06856 1525.95769,1554.54305 C1525.94472,1520.06941 1507.09965,1495.77704 1470.57679,1495.77704 Z M1363.95235,1610.13146 L1363.95235,1450.39584 L1384.9504,1450.39584 L1384.9504,1610.13146 L1363.95235,1610.13146 Z M1229.23541,1495.77704 C1250.24643,1495.77704 1273.90328,1504.57055 1272.35987,1529.82268 L1250.24643,1529.82268 C1251.12837,1515.65969 1240.29862,1511.00355 1228.12001,1511.00355 C1216.81037,1511.00355 1207.75748,1516.29521 1207.75748,1528.6554 C1207.75748,1541.0934 1226.75818,1541.94941 1234.73459,1544.36178 C1253.56669,1550.58727 1275.22619,1552.79213 1275.22619,1577.82378 C1275.22619,1605.03434 1248.71599,1613.43875 1225.92812,1613.43875 C1202.64739,1613.43875 1183.24462,1602.7776 1183.4262,1577.16232 L1205.55262,1577.16232 C1206.00656,1590.87136 1215.29291,1598.16037 1228.13298,1598.16037 C1240.49316,1598.16037 1253.13868,1593.24483 1253.13868,1578.86136 C1253.13868,1554.11505 1185.64403,1572.67478 1185.64403,1529.36874 C1185.63106,1506.13989 1209.08039,1495.77704 1229.23541,1495.77704 L1229.23541,1495.77704 Z M1170.31376,1450.38287 L1195.98093,1450.38287 L1171.22165,1504.57055 L1156.17672,1504.57055 L1170.31376,1450.38287 Z M1111.89794,1514.14223 L1111.444,1514.14223 C1105.011,1500.84822 1091.12038,1495.77704 1076.93146,1495.77704 C1042.41891,1495.77704 1027.1535,1524.47913 1027.1535,1554.54305 C1027.1535,1583.11544 1040.18811,1613.43875 1073.1832,1613.43875 C1089.31758,1613.43875 1103.93451,1607.91363 1111.444,1592.41476 L1111.89794,1592.41476 L1111.89794,1593.50422 L1112.53346,1610.11849 L1133.99842,1610.11849 C1133.57042,1603.68549 1132.89599,1597.04497 1132.89599,1590.43039 L1132.89599,1450.3699 L1111.89794,1450.3699 L1111.89794,1514.14223 L1111.89794,1514.14223 Z M975.81917,1610.13146 L975.81917,1450.39584 L996.843159,1450.39584 L996.843159,1610.13146 L975.81917,1610.13146 Z M915.924796,1610.13146 L894.939717,1610.13146 L894.939717,1499.0584 L915.924796,1499.0584 L915.924796,1520.53633 L916.391708,1520.53633 C919.478512,1505.25794 933.628525,1497.54093 948.919878,1497.54093 C951.55274,1497.54093 953.77057,1497.72251 956.195916,1497.72251 L956.195916,1517.60516 C953.303659,1516.56758 950.009338,1516.56758 947.14302,1516.56758 C920.619851,1517.39764 915.937766,1531.58657 915.937766,1555.04887 L915.937766,1610.13146 L915.924796,1610.13146 Z M813.048621,1495.77704 C776.590612,1495.77704 757.758513,1520.06941 757.758513,1554.54305 C757.758513,1589.06856 776.590612,1613.43875 813.048621,1613.43875 C849.597418,1613.43875 868.403578,1589.06856 868.403578,1554.54305 C868.403578,1520.06941 849.597418,1495.77704 813.048621,1495.77704 Z M744.736869,1499.04543 L705.568179,1610.11849 L681.664903,1610.11849 L655.816161,1518.69462 L655.36222,1518.69462 L626.608251,1610.11849 L602.043516,1610.11849 L565.339082,1499.04543 L588.139928,1499.04543 L614.883583,1588.47195 L615.363465,1588.47195 L642.976094,1499.04543 L670.160721,1499.04543 L695.166428,1586.6951 L695.646309,1586.6951 L723.297848,1499.04543 L744.736869,1499.04543 L744.736869,1499.04543 Z M481.269066,1558.55071 L481.269066,1548.16192 C481.269066,1517.38467 465.549711,1496.36068 432.411961,1495.77704 C397.212019,1495.77704 380.831206,1522.93573 380.831206,1555.48984 C380.831206,1588.17365 394.98122,1613.45172 430.583224,1613.45172 C457.158273,1613.45172 476.651829,1600.83214 479.92021,1575.58001 L457.793791,1575.58001 C455.355475,1591.76627 447.197493,1598.17334 430.81668,1598.17334 C409.390629,1598.17334 401.401253,1578.05723 402.957625,1558.55071 L481.269066,1558.55071 L481.269066,1558.55071 Z M257.436863,1610.13146 L257.436863,1450.39584 L278.460852,1450.39584 L278.460852,1513.89581 L278.940733,1513.89581 C286.904169,1501.48374 298.810413,1495.79001 314.97074,1495.79001 C343.919255,1495.79001 352.998091,1514.98527 352.998091,1534.90683 L352.998091,1610.14443 L332.013011,1610.14443 L332.013011,1544.38772 C332.013011,1524.95902 326.928863,1512.31349 307.227791,1511.93737 C298.823383,1511.67798 285.983316,1518.12395 282.014568,1527.35842 C277.150906,1538.91448 278.473822,1546.86495 278.473822,1553.03856 L278.473822,1610.13146 L257.436863,1610.13146 L257.436863,1610.13146 Z" id="Shape" fill="#CE3729"></path>
            </g>
        </g>
    </g>
</svg>