
<svg width="780px" height="800px" viewBox="0 0 780 800" version="1.1" xmlns="http://www.w3.org/2000/svg" xmlns:xlink="http://www.w3.org/1999/xlink">
    <g id="Page-1" stroke="none" stroke-width="1" fill="none" fill-rule="evenodd">
        <rect id="Rectangle" stroke="#000000" fill="#000000" transform="translate(390.000000, 400.000000) scale(-1, 1) translate(-390.000000, -400.000000) " x="0.5" y="0.5" width="779" height="799"></rect>
        <g id="box-deloitte" transform="translate(15.000000, 325.000000)" fill-rule="nonzero">
            <path d="M710.248208,128.372551 C710.248208,116.666441 719.158516,107.169338 730.127068,107.169338 C741.101546,107.169338 750,116.666441 750,128.372551 C750,140.078661 741.101546,149.570345 730.127068,149.570345 C719.158516,149.570345 710.248208,140.078661 710.248208,128.372551" id="Path" fill="#86BC24"></path>
            <path d="M76.2921809,72.2198892 C76.2921809,58.7897425 73.8597109,48.8257314 68.9939243,42.3341777 C64.1213644,35.849849 56.7426747,32.6103939 46.8197551,32.6103939 L36.2660697,32.6103939 L36.2660697,114.737398 L44.3415652,114.737398 C55.3617632,114.737398 63.4372587,111.251394 68.5799049,104.257711 C73.7157778,97.2766722 76.2930275,86.5946888 76.2930275,72.2198892 M113.932389,70.8200689 C113.932389,95.2880243 107.766971,114.142249 95.434441,127.375518 C83.1027581,140.615108 65.7672821,147.234903 43.4203931,147.234903 L0,147.234903 L0,0.621339583 L46.4523023,0.621339583 C67.9982457,0.621339583 84.6326826,6.64056679 96.3547664,18.6717963 C108.07177,30.7093476 113.932389,48.0842782 113.932389,70.8218751 M234.207995,147.234 L268.758721,147.234 L268.758721,0.00541865915 L234.207995,0.00541865915 L234.207995,147.234 Z M317.297207,92.3167929 C317.297207,101.703717 318.446978,108.863572 320.743135,113.783714 C323.043525,118.711082 326.8967,121.171153 332.314513,121.171153 C337.675598,121.171153 341.46612,118.711082 343.67507,113.783714 C345.883174,108.863572 346.982146,101.703717 346.982146,92.3167929 C346.982146,82.9786369 345.86624,75.9352831 343.62935,71.1813129 C341.385687,66.4128928 337.560452,64.0268765 332.136713,64.0268765 C326.8332,64.0268765 323.043525,66.4020555 320.742289,71.12532 C318.447825,75.8558095 317.29636,82.9172255 317.29636,92.3167929 M382.148397,92.3167929 C382.148397,110.201077 377.754203,124.153222 368.942108,134.153357 C360.136787,144.159814 347.810184,149.166655 331.963993,149.166655 C316.768041,149.166655 304.671731,144.049635 295.692843,133.815594 C286.702949,123.582456 282.210542,109.753135 282.210542,92.317696 C282.210542,74.487598 286.611509,60.6338928 295.422757,50.7565803 C304.234005,40.8783646 316.589394,35.9401599 332.498239,35.9401599 C342.328872,35.9401599 351.02582,38.2286403 358.560296,42.7992793 C366.100699,47.3690152 371.922371,53.9165617 376.011765,62.4446281 C380.107086,70.9600509 382.148397,80.924062 382.148397,92.3167929 M395.870304,147.234 L430.426956,147.234 L430.426956,37.872815 L395.870304,37.872815 L395.870304,147.234 Z M395.868611,24.6440618 L430.42611,24.6440618 L430.42611,0 L395.868611,0 L395.868611,24.6440618 Z M500.437726,119.340549 C505.102853,119.340549 510.658672,118.076195 517.140743,115.567356 L517.140743,143.08421 C512.481543,145.26793 508.052636,146.832116 503.842168,147.758707 C499.632547,148.697941 494.691407,149.163946 489.037375,149.163946 C477.435518,149.163946 469.073003,146.053636 463.936283,139.843852 C458.822424,133.635875 456.257874,124.101744 456.257874,111.236041 L456.257874,66.1527972 L444.155637,66.1527972 L444.155637,37.8827492 L456.257874,37.8827492 L456.257874,9.95407686 L491.079532,3.49413204 L491.079532,37.8818461 L513.126702,37.8818461 L513.126702,66.1537003 L491.079532,66.1537003 L491.079532,108.719977 C491.079532,115.800359 494.202881,119.340549 500.437726,119.340549 M580.414595,119.340549 C585.079722,119.340549 590.636388,118.076195 597.118459,115.567356 L597.118459,143.08421 C592.465185,145.26793 588.030351,146.832116 583.819884,147.758707 C579.60349,148.697941 574.680976,149.163946 569.015091,149.163946 C557.41408,149.163946 549.050719,146.053636 543.925006,139.843852 C538.800986,133.635875 536.23559,124.101744 536.23559,111.236041 L536.23559,66.1527972 L524.128273,66.1527972 L524.128273,37.8827492 L536.23559,37.8827492 L536.23559,9.53142145 L571.050475,3.49413204 L571.050475,37.8818461 L593.109498,37.8818461 L593.109498,66.1537003 L571.051321,66.1537003 L571.051321,108.719977 C571.051321,115.800359 574.17467,119.340549 580.415442,119.340549 M640.720885,78.9941162 C641.192478,73.0064979 642.797755,68.6191857 645.535025,65.8159372 C648.284994,63.0181028 651.67843,61.6191857 655.739037,61.6191857 C660.167945,61.6191857 663.68838,63.1896937 666.299496,66.3550938 C668.927546,69.5024316 670.296604,73.7181484 670.405824,78.9941162 L640.720885,78.9941162 Z M689.450717,48.8329563 C681.236369,40.2443815 669.583712,35.9428693 654.508832,35.9428693 C638.661794,35.9428693 626.467271,40.8819771 617.920183,50.7592896 C609.379022,60.6375052 605.105901,74.8091052 605.105901,93.2777018 C605.105901,111.161083 609.724461,124.953377 618.938722,134.634715 C628.158909,144.316052 641.106118,149.163043 657.780348,149.163043 C665.787263,149.163043 672.678274,148.580537 678.452533,147.420944 C684.192925,146.273995 689.74959,144.199551 695.139463,141.205742 L689.830023,116.559874 C685.913349,118.266752 682.186327,119.57897 678.665892,120.443246 C673.581666,121.702181 668.00214,122.333455 661.927315,122.333455 C655.267445,122.333455 650.010499,120.597678 646.156477,117.125221 C642.302456,113.646442 640.249292,108.848219 640.013919,102.737778 L701.776474,102.737778 L701.776474,85.9453528 C701.776474,69.7914268 697.670146,57.4161124 689.450717,48.8329563 M159.791178,78.9941162 C160.262771,73.0064979 161.868049,68.6191857 164.605318,65.8159372 C167.348515,63.0181028 170.747877,61.6191857 174.815258,61.6191857 C179.232311,61.6191857 182.752747,63.1896937 185.36979,66.3550938 C187.997839,69.5024316 189.360971,73.7181484 189.482044,78.9941162 L159.791178,78.9941162 Z M208.526091,48.8329563 C200.306662,40.2443815 188.659085,35.9428693 173.578279,35.9428693 C157.726161,35.9428693 145.538412,40.8819771 136.996403,50.7592896 C128.455242,60.6375052 124.176194,74.8091052 124.176194,93.2777018 C124.176194,111.161083 128.788828,124.953377 138.014942,134.634715 C147.229203,144.316052 160.176411,149.163043 176.851488,149.163043 C184.857557,149.163043 191.748567,148.580537 197.522826,147.420944 C203.263218,146.273995 208.819884,144.199551 214.214836,141.205742 L208.900317,116.559874 C204.982796,118.266752 201.255774,119.57897 197.741266,120.443246 C192.646033,121.702181 187.072434,122.333455 180.997609,122.333455 C174.342818,122.333455 169.080792,120.597678 165.226771,117.125221 C161.366823,113.646442 159.319586,108.848219 159.084213,102.737778 L220.846767,102.737778 L220.846767,85.9453528 C220.846767,69.7914268 216.740439,57.4161124 208.526091,48.8329563" id="Shape" fill="#FFFFFF"></path>
        </g>
    </g>
</svg>