<?xml version="1.0" standalone="no"?><!DOCTYPE svg PUBLIC "-//W3C//DTD SVG 1.1//EN" "http://www.w3.org/Graphics/SVG/1.1/DTD/svg11.dtd"><svg t="1627065331846" class="icon" viewBox="0 0 1024 1024" version="1.1" xmlns="http://www.w3.org/2000/svg" p-id="2415" xmlns:xlink="http://www.w3.org/1999/xlink" width="200" height="200"><defs><style type="text/css">@font-face { font-family: feedback-iconfont; src: url("//at.alicdn.com/t/font_1031158_1uhr8ri0pk5.eot?#iefix") format("embedded-opentype"), url("//at.alicdn.com/t/font_1031158_1uhr8ri0pk5.woff2") format("woff2"), url("//at.alicdn.com/t/font_1031158_1uhr8ri0pk5.woff") format("woff"), url("//at.alicdn.com/t/font_1031158_1uhr8ri0pk5.ttf") format("truetype"), url("//at.alicdn.com/t/font_1031158_1uhr8ri0pk5.svg#iconfont") format("svg"); }
</style></defs><path d="M596.592 898.304c4.848 23.776-23.608 49.648-63.56 57.816-39.96 8.16-76.264-4.488-81.128-28.248-4.856-23.76 20.96-22.536 60.904-30.704 39.952-8.16 78.928-22.624 83.784 1.136zM497.752 839.208c-53.256 0-90.76-19.648-97.712-53.656a16 16 0 0 1 31.36-6.408c4.736 23.208 49.2 33.864 103.384 24.792 36.768-6.152 65.76-20.08 77.552-37.264 4.632-6.744 6.184-13.448 4.752-20.48a16.008 16.008 0 0 1 31.36-6.408c3.168 15.544-0.184 31.112-9.728 45-16.864 24.552-52.824 43.04-98.656 50.712a257.48 257.48 0 0 1-42.312 3.712z" p-id="2416"></path><path d="M503.176 925.92c-51.504 0.008-92.152-23.072-100.672-60.512-4.056-17.784-1.168-32.312 2.92-42.616-6.192-11.008-12.88-27.368-12.264-46.008 1.248-37.352 25.232-59.312 39.2-66.4l21.72 42.808-10.856-21.4 11.336 21.152c-1.312 0.752-12.832 7.84-13.432 25.448-0.4 12.104 8.288 24.936 10.64 27.704l14.504 17.128-14.648 14.112c-1.08 1.592-4.544 7.68-2.328 17.432 3.368 14.76 36.232 29.584 82.096 20.2 29.704-6.064 64.912-18.136 64.024-41.184-0.16-4.184-3.768-8.648-3.808-8.688l-18.792-18.992 20.888-16.648c0.16-0.152 11.368-9.992 11.368-27.32 0-8.896-6.512-11.512-6.576-11.536l16.408-45.112c14.176 5.16 38.168 22.896 38.168 56.648 0 21.176-7.328 37.36-14.704 48.296 2.632 6.032 4.696 13.288 5.008 21.512 1.2 31.288-15.568 72.32-102.384 90.056a190.72 190.72 0 0 1-37.816 3.92z" p-id="2417"></path><path d="M419.84 769.768c-32.48-29.312-53.248-72.544-56.968-118.608-1.536-19.064-10.456-52.632-22.176-73.616-1.8-3.208-4.976-8.136-8.664-13.832-21.84-33.816-62.504-96.768-62.504-172.776 0-139.832 113.76-253.592 253.592-253.592s253.584 113.76 253.584 253.592c0 82.576-47.256 151.72-67.44 181.248-1.792 2.624-3.368 4.92-4.648 6.872-13.936 21.104-19.576 60.592-21.432 73.568-6.464 45.272-25.568 86.912-52.432 114.256l-34.232-33.64c19.832-20.192 34.104-52.04 39.152-87.392 3.864-27.104 11.072-66.256 28.88-93.232 1.408-2.128 3.128-4.64 5.088-7.504 17.672-25.864 59.064-86.424 59.064-154.168 0-113.36-92.224-205.592-205.592-205.592S317.52 277.568 317.52 390.936c0 61.848 35.664 117.064 54.832 146.728 4.304 6.656 7.696 11.912 10.24 16.456 15.648 28 26.168 68.904 28.128 93.184 2.744 33.984 17.792 65.624 41.28 86.824l-32.16 35.64z" p-id="2418"></path><path d="M523.112 779.064c-79.848 0-145.32-64.96-152.264-151.088a16 16 0 0 1 31.888-2.584c5.6 69.36 57.352 121.672 120.376 121.672 71.144 0 111.776-61.592 120.488-122.64a15.992 15.992 0 1 1 31.672 4.528c-12.808 89.784-73.96 150.112-152.16 150.112z" p-id="2419"></path><path d="M561.128 767.328c-8.832 0-21.12-10.496-21.12-19.328v-224c0-2.352 5.632-5.464 6.632-7.592L591.92 420H461.2l45.28 96.408c1 2.128 1.512 4.448 1.512 6.8L508 748c0 8.832-7.168 19.328-16.008 19.328S476 756.832 476 748v-224l-54.48-113.2a15.992 15.992 0 0 1 14.48-22.8h181.112a15.992 15.992 0 0 1 14.48 22.8l-51.6 113.2v224c0.016 8.832-10.032 19.328-18.864 19.328zM167.064 426.848H92a16 16 0 0 1 0-32h75.064a16 16 0 0 1 0 32zM948.568 426.848h-75.064a16 16 0 0 1 0-32h75.064a16 16 0 0 1 0 32zM270.52 177.08a15.936 15.936 0 0 1-11.312-4.688l-53.08-53.072a16 16 0 1 1 22.624-22.624l53.08 53.072a16 16 0 0 1-11.312 27.312zM823.128 729.72a15.92 15.92 0 0 1-11.312-4.688l-53.08-53.104a16 16 0 0 1 22.624-22.632l53.08 53.104a16 16 0 0 1-11.312 27.32zM770.048 177.08a16 16 0 0 1-11.312-27.312l53.08-53.08a16 16 0 1 1 22.624 22.624l-53.08 53.08a15.92 15.92 0 0 1-11.312 4.688zM217.44 729.72a16.016 16.016 0 0 1-11.32-27.312l53.08-53.104a16.016 16.016 0 0 1 22.632-0.008c6.248 6.248 6.248 16.376 0.008 22.632l-53.08 53.104c-3.128 3.12-7.224 4.688-11.32 4.688z" p-id="2420"></path></svg>