<?xml version="1.0" encoding="utf-8"?>

<svg t="1625171254484" class="icon" viewBox="0 0 1024 1024" version="1.1" xmlns="http://www.w3.org/2000/svg" p-id="2694" width="200" height="200"><path d="M878.9 109.4H673.4V65H437.6v44.4H232.1c-44.1 0-80 35.9-80 80v89.5c0 22.1 17.9 40 40 40s40-17.9 40-40v-89.4s0-0.1 0.1-0.1h205.4v46h235.7v-46h205.4s0.1 0 0.1 0.1v331.7s0 0.1-0.1 0.1h-60.9c-22.1 0-40 17.9-40 40s17.9 40 40 40h61c44.1 0 80-35.9 80-80V189.4c0.1-44.1-35.8-80-79.9-80z" p-id="2695" fill="#EFF2F7"></path><path d="M745.9 286.5a40.1 40.1 0 0 0-42.7 5.9L384.7 563.7c8.8-19.6 13.8-41.3 13.8-64.2 0-86.5-70.4-156.8-156.8-156.8S84.8 413 84.8 499.5c0 44 18.2 83.8 47.5 112.3l-43.5 19.5c-14.4 6.5-23.6 20.7-23.6 36.5V919c0 22.1 17.9 40 40 40h413.3c22.1 0 40-17.9 40-40V742.4l201.2-238.9c6.1-7.2 9.4-16.3 9.4-25.8v-155c0-15.5-9.1-29.7-23.2-36.2zM241.6 422.7c42.4 0 76.8 34.5 76.8 76.8 0 42.4-34.5 76.8-76.8 76.8s-76.8-34.5-76.8-76.8 34.5-76.8 76.8-76.8z m447.5 40.4L487.9 702c-6.1 7.2-9.4 16.3-9.4 25.8V879H145.1V693.7l42.1-18.9 168.5 5.1c9.9 0.3 19.6-3.1 27.1-9.5l306.2-261v53.7z" p-id="2696" fill="#EFF2F7"></path></svg>