<?xml version="1.0" standalone="no"?><!DOCTYPE svg PUBLIC "-//W3C//DTD SVG 1.1//EN" "http://www.w3.org/Graphics/SVG/1.1/DTD/svg11.dtd">
<svg t="1627065458197" class="icon" viewBox="0 0 1024 1024" version="1.1"
    xmlns="http://www.w3.org/2000/svg" p-id="4807"
    xmlns:xlink="http://www.w3.org/1999/xlink" width="200" height="200">
    <defs>
        <style type="text/css">
        </style>
    </defs>
    <path d="M911.552 337.36c-4.096-68.848-35.072-133.216-82.88-172.16C787.2 131.36 732.32 111.936 678.096 111.936c-82.72 0-134.896 35.44-166.08 78.256-31.2-42.816-83.36-78.256-166.08-78.256-54.24 0-109.104 19.408-150.56 53.232-47.84 38.96-78.816 103.328-82.912 172.176-3.488 58.848 10.928 148.256 99.536 240C362.272 732.96 512.032 889.92 512.032 889.92s149.712-156.96 300-312.528c88.608-91.76 103.024-181.168 99.52-240z m-157.056 184.432a71794.4 71794.4 0 0 0-242.464 252.256 74325.76 74325.76 0 0 0-242.496-252.256c-68.432-70.864-79.76-136.816-77.2-179.68 3.28-55.216 29.824-95.568 53.568-114.928 27.056-22.064 64.448-35.232 100.032-35.232 114.336 0 124.8 101.696 126.16 112.048 1.92 14.704 13.392 31.952 41.664 31.952 26.752 0 35.52-18.496 38.16-31.68 2.304-11.392 11.84-112.32 126.176-112.32 35.584 0 72.96 13.168 100.032 35.248 23.744 19.344 50.288 59.68 53.568 114.928 2.56 42.848-8.768 108.8-77.2 179.664z" fill="white" p-id="4808"></path>
</svg>