<?xml version="1.0" encoding="utf-8"?>
<!-- Generator: Adobe Illustrator 19.2.1, SVG Export Plug-In . SVG Version: 6.00 Build 0)  -->
<svg version="1.1" id="layer" xmlns="http://www.w3.org/2000/svg" xmlns:xlink="http://www.w3.org/1999/xlink" x="0px" y="0px"
	 viewBox="0 0 652 652" style="enable-background:new 0 0 652 652;" xml:space="preserve">
<style type="text/css">
	.st0{fill:#002E59;}
</style>
<g>
	<path class="st0" d="M165.4,308.3c-3.3,0-5.9,1.8-7.9,5.7c-2.7,5.4-4.1,14.7-4.1,29c0,14.4,1.6,23.6,4.3,28.9
		c1.8,3.5,4.6,5.3,7.9,5.3s6-1.8,7.9-5.3c2.8-5.2,4.3-14.4,4.3-28.9c0-14.3-1.5-23.6-4.1-29c-2-3.9-4.6-5.7-8-5.7H165.4z
		 M165.4,384.5c-10.3,0-18.4-2.7-24.4-7.9c-7.7-6.9-11.6-18.3-11.6-34.3c0-14.1,3.6-24.9,10.4-32c6.1-6,14.3-9.2,25.8-9.2
		c11.7,0,20.6,3.4,26.8,10c6.2,7,9.4,17.5,9.4,31.3c0,15.8-3.5,26.1-9.6,32.7c-6.5,6.5-15.6,9.6-26.7,9.6H165.4z"/>
	<path class="st0" d="M323.3,363.3c0,11.2,1,12.5,7.4,12.5v6.6h-36.8v-6.6c5.9,0,6.8-1.5,6.8-12.1v-34.1c0-5.6-0.4-10.4-1.7-13.7
		c-1.2-3.1-3.3-4.9-6.6-4.9c-4.9,0-9.3,4.1-14,11.7v40.5c0,11.5,0.9,12.5,6.8,12.5v6.6h-36.3v-6.6c6.1,0,6.8-1.2,6.8-12.1v-33.7
		c0-6.7-0.4-11.4-2-14.8c-1.2-2.6-3.6-4.3-6.4-4.2c-4.2,0-8.7,4-14,11.9v40.2c0,11.4,0.8,12.6,6.9,12.6v6.7h-38.6v-6.7
		c8.2,0,9-1.4,9-13.1v-34.9c0-11.2-0.9-12.8-9-12.8v-6.3c8-1,19-3.5,28-7.6l2.7,1.5l0.7,10.9h0.3c5.6-6.6,13.2-12.3,23.6-12.3
		c5.9,0,10.3,1.5,13.5,4c2.9,2.2,5.2,5.3,6.4,8.9h0.7c5.3-6.5,12.9-13,24.2-13c6.5,0,12.1,2.1,15.9,6.6c3.8,4.5,5.7,11,5.7,20.6
		L323.3,363.3L323.3,363.3z"/>
	<path class="st0" d="M370.9,335.3c0-8.3-0.7-17.1-2.7-22.2c-1.3-2.9-2.9-4.8-5.4-4.8c-2,0-4.1,1.5-5.9,5.1
		c-1.9,4-3.3,11.1-3.3,21.9H370.9z M353.6,342.6c0,11,1.4,19.3,4.4,25.3c2.9,5.4,7.4,8.1,11.4,8.1c4-0.1,7.8-1.7,10.8-4.5
		c2.7-2.7,4.8-6.1,6-9.8l6.9,3c-2.3,5.3-5.3,9.9-9.6,13.7c-4.3,3.7-10.3,6.2-18.5,6.2c-10.3,0-19.5-2.8-26.5-11
		c-5.6-7.1-9-17.6-9-32.7c0-13.5,4.3-24.2,11-31.3c5.8-5.6,13.6-8.6,22.6-8.6c10.6,0,17.4,3.6,22.6,10.7c5.1,7.3,8.2,18.5,8.2,30.9
		L353.6,342.6L353.6,342.6z"/>
	<path class="st0" d="M443.6,324.9c-2.4-12.3-6-16.7-13.6-16.7c-2.5-0.1-5,0.7-7,2.3c-1.7,1.4-2.7,3.7-2.7,6c0,3.4,1.9,6.3,5.3,9.3
		c3.3,3,8,6,11.9,9.3c4.4,3.4,8.7,6.8,11.6,10.9c3,4,4.7,8.9,4.8,14.1c0.1,6.3-2.4,12.4-7,16.5c-5.1,4.7-12.6,7.6-23.4,7.6
		c-10.6,0-17.8-1.8-23.4-4c-0.7-7.2-1.7-14.3-3.1-21.3l6.7-1.6c3.8,14.7,8.7,19.6,16.4,19.6c2.8,0.1,5.5-1,7.5-3.1
		c1.9-2.3,2.9-5.3,2.8-8.3c0-2.6-0.7-5.1-2.2-7.3c-2-2.8-4.9-5-11.1-9.9c-5.5-4.6-10-8-13.4-12.1c-3-3.9-5.2-8.6-5.2-14.4
		c0-5.7,2.4-11.2,8-15.3c4.7-3.5,11.7-5.7,21.1-5.7c9.9,0,16.2,1.7,20.2,3.1c0.6,6.5,1.5,13.1,2.8,19.5L443.6,324.9z"/>
	<path class="st0" d="M487.6,362.8c0,11.7,0.9,13,7.8,13v6.6h-39.1v-6.6c7.7,0,8.6-1.3,8.6-13.1v-35.2c0-11.8-0.6-12.3-8.6-12.5
		v-6.3c9.9-0.9,19.6-3.5,28.7-7.6l2.6,1.4V362.8z"/>
	<path class="st0" d="M494.8,304.5c11.1-1.4,19-9.5,24.7-27.1h6.1v25.6h15.8v7.8h-15.8v51.3c0,9.8,2.3,13.1,7.2,13.1
		c3,0,5.6-1.1,8.1-3.4l3.8,6.3c-4.5,4-10.3,6.5-19.7,6.5c-11.9,0-22.1-4.8-22.1-23.5v-50.4h-8.2V304.5z"/>
	<path class="st0" d="M583.6,335.3c0-8.3-0.7-17.1-2.7-22.2c-1.3-2.9-2.9-4.8-5.4-4.8c-2,0-4.1,1.5-5.9,5.1
		c-1.9,4-3.3,11.1-3.3,21.9H583.6z M566.2,342.6c0,11,1.4,19.3,4.4,25.3c2.9,5.4,7.4,8.1,11.4,8.1c4-0.1,7.8-1.7,10.8-4.5
		c2.7-2.7,4.8-6.1,6-9.8l6.9,3c-2.3,5.3-5.3,9.9-9.6,13.7c-4.3,3.7-10.3,6.2-18.5,6.2c-10.3,0-19.5-2.8-26.5-11
		c-5.6-7.1-9-17.6-9-32.7c0-13.5,4.3-24.2,11-31.3c5.8-5.6,13.6-8.6,22.6-8.6c10.6,0,17.4,3.6,22.6,10.7c5.1,7.3,8.2,18.5,8.2,30.9
		L566.2,342.6L566.2,342.6z"/>
	<path class="st0" d="M120.5,362.7c0,11.5,1,13.2,11.6,13.2v7.5H89.3v-7.5c8.5,0,9.3-1.6,9.3-12.6v-35.8H59.7v35.8
		c0,11.1,0.9,12.6,9.3,12.6v7.5H26.2v-7.5c10.5,0,11.6-1.8,11.6-13.2V288c0-11.5-1-13.2-11.6-13.2v-7.6H69v7.5
		c-8.5,0-9.3,1.5-9.3,12.6v31.3h38.9v-31.2c0-11.2-0.9-12.7-9.3-12.7v-7.5H132v7.5c-10.5,0-11.6,1.8-11.6,13.2L120.5,362.7
		L120.5,362.7z"/>
	<path class="st0" d="M473.9,270.2c7.4,0,13.3,6.3,13.3,14.1c0,7.8-6,14.1-13.3,14.1c-7.4,0-13.3-6.3-13.3-14.1
		C460.6,276.5,466.6,270.2,473.9,270.2"/>
	<path class="st0" d="M619.8,274.1c0-0.2,0-0.3-0.1-0.4c-0.1-0.1-0.2-0.3-0.3-0.3c-0.1-0.1-0.3-0.1-0.4-0.2c-0.2,0-0.4,0-0.6,0h-0.5
		v2.2h0.4c0.2,0,0.5,0,0.7-0.1c0.2,0,0.4-0.1,0.5-0.2c0.1-0.1,0.2-0.2,0.3-0.4C619.8,274.5,619.9,274.3,619.8,274.1 M622.9,279.5
		h-2.2l-2.1-2.8h-0.7v2.8h-1.7v-7.7h2.7c0.4,0,0.8,0,1.2,0.1c0.3,0,0.6,0.2,0.9,0.3c0.3,0.2,0.6,0.4,0.7,0.7c0.2,0.3,0.2,0.7,0.2,1
		c0,0.5-0.1,1-0.4,1.4c-0.3,0.4-0.7,0.7-1.1,0.8L622.9,279.5z M624.6,275.8c0-1.6-0.6-3.2-1.7-4.3c-2.2-2.4-5.8-2.4-8-0.1
		c0,0,0,0.1-0.1,0.1c-1.1,1.1-1.7,2.7-1.7,4.3c0,1.6,0.6,3.2,1.7,4.3c2.2,2.4,5.8,2.4,8,0.1c0,0,0.1-0.1,0.1-0.1
		C624,279,624.6,277.4,624.6,275.8L624.6,275.8z M626.2,275.8c0,2.1-0.8,4-2.2,5.5c-2.9,3-7.5,3-10.4,0c0,0,0,0,0,0
		c-1.4-1.4-2.2-3.4-2.2-5.5c0-2.1,0.8-4,2.2-5.5c2.9-3,7.5-3,10.4,0c0,0,0,0,0,0C625.5,271.8,626.2,273.8,626.2,275.8"/>
</g>
</svg>
