<?xml version="1.0" encoding="utf-8"?>
<svg t="1625016887328" class="icon" viewBox="0 0 1024 1024" version="1.1" xmlns="http://www.w3.org/2000/svg" p-id="3445" width="200" height="200"><path d="M782.576997 560.063669c-2.424212 0-4.835122 0.060375-7.237845 0.149403-0.001023 0-0.001023 0-0.001023 0-27.580149-18.456351-58.947554-34.762735-94.650707-47.956222-0.090051-0.033769-0.180102-0.067538-0.270153-0.103354 63.883983-47.03013 105.587803-122.492822 105.587803-207.717855 0-142.309146-115.78812-258.094196-258.104429-258.094196-142.312216 0-258.103406 115.783003-258.103406 258.094196 0 86.268806 42.706661 162.577772 107.916848 209.454406-0.031722 0.01228-0.064468 0.025583-0.096191 0.037862C80.156086 620.545158 80.156086 941.90526 80.156086 941.90526l63.956637 0c0 0 33.171494-383.761314 383.786896-383.761314 60.437487 0 111.433952 11.354606 154.452721 30.15581-54.968939 33.742499-91.636047 94.39795-91.636047 163.622568 0 105.96131 85.898369 191.858656 191.860702 191.858656 46.51643 0 89.163739-16.558118 122.378212-44.096311 22.957875-19.033495 41.396829-43.319621 53.498448-71.01131 10.271948-23.506367 15.98302-49.459458 15.98302-76.751035C974.436676 645.961014 888.538307 560.063669 782.576997 560.063669zM527.900643 498.5425c-107.047038 0-194.140629-87.075171-194.140629-194.10686 0-107.053178 87.091544-194.129372 194.140629-194.129372 107.047038 0 194.140629 87.076194 194.140629 194.129372C722.040249 411.467329 634.948705 498.5425 527.900643 498.5425zM747.774353 877.067556c-43.538609-46.573735-94.805226-82.147952-130.726344-93.257987l84.670401-44.336788 40.953737 68.795852c0 0 66.680678-139.830699 171.857113-186.519044-2.579755 33.343409-12.890588 62.212924 5.15644 97.671507C873.45682 728.299301 778.538007 828.205709 747.774353 877.067556z" p-id="3446" fill="#EFF2F7"></path></svg>

