<?xml version="1.0" standalone="no"?><!DOCTYPE svg PUBLIC "-//W3C//DTD SVG 1.1//EN" "http://www.w3.org/Graphics/SVG/1.1/DTD/svg11.dtd"><svg t="1627065100816" class="icon" viewBox="0 0 1024 1024" version="1.1" xmlns="http://www.w3.org/2000/svg" p-id="28814" xmlns:xlink="http://www.w3.org/1999/xlink" width="200" height="200"><defs><style type="text/css">@font-face { font-family: feedback-iconfont; src: url("//at.alicdn.com/t/font_1031158_1uhr8ri0pk5.eot?#iefix") format("embedded-opentype"), url("//at.alicdn.com/t/font_1031158_1uhr8ri0pk5.woff2") format("woff2"), url("//at.alicdn.com/t/font_1031158_1uhr8ri0pk5.woff") format("woff"), url("//at.alicdn.com/t/font_1031158_1uhr8ri0pk5.ttf") format("truetype"), url("//at.alicdn.com/t/font_1031158_1uhr8ri0pk5.svg#iconfont") format("svg"); }
</style></defs><path d="M512 0a512 512 0 1 0 512 512A512.581818 512.581818 0 0 0 512 0z m0 954.181818a442.181818 442.181818 0 1 1 442.181818-442.181818 442.181818 442.181818 0 0 1-442.181818 442.181818z m190.440727-522.938182l-110.615272-13.032727-50.967273-98.443636a33.396364 33.396364 0 0 0-31.045818-17.221818h-0.558546a33.163636 33.163636 0 0 0-30.976 18.152727L430.987636 418.909091l-108.939636 11.869091a34.909091 34.909091 0 0 0-21.108364 59.112727l82.245819 83.549091-17.221819 111.243636a34.909091 34.909091 0 0 0 34.490182 40.261819 33.396364 33.396364 0 0 0 16.756364-4.421819l97.978182-53.527272 99.653818 50.501818a35.467636 35.467636 0 0 0 36.724363-3.258182 34.909091 34.909091 0 0 0 13.335273-34.443636l-20.666182-109.847273 78.824728-79.825455a34.722909 34.722909 0 0 0-20.619637-58.88z m-120.785454 102.865455a34.676364 34.676364 0 0 0-9.309091 30.952727l10.961454 58.181818-52.922181-26.763636a35.560727 35.560727 0 0 0-32.581819 0.465455l-52.037818 28.392727 9.099637-58.414546a34.699636 34.699636 0 0 0-9.611637-29.789091l-43.962182-44.683636 56.645819-6.283636a34.629818 34.629818 0 0 0 27.764363-19.781818l25.390546-53.527273 27.089454 52.829091a34.909091 34.909091 0 0 0 26.786909 18.618182l58.600728 7.214545z" p-id="28815"></path></svg>