<?xml version="1.0" encoding="utf-8"?>

<svg t="1625613466927" class="icon" viewBox="0 0 1024 1024" version="1.1" xmlns="http://www.w3.org/2000/svg" p-id="9316" width="200" height="200">
    <defs>
        <linearGradient id="bg" gradientTransform="rotate(0)">
            <stop offset="0%" stop-color="#fccb90" />
            <stop offset="100%" stop-color="#f5576c" />
        </linearGradient>
    </defs>
<path d="M756.736 276.48c-39.936 0-72.704 32.768-72.704 72.704 0 6.144 1.024 11.264 2.048 16.384l-68.608 45.056c-21.504-24.576-52.224-40.96-88.064-40.96-26.624 0-51.2 9.216-70.656 24.576l-112.64-77.824c7.168-29.696-8.192-62.464-36.864-75.776-33.792-15.36-73.728-1.024-89.088 31.744s-1.024 73.728 31.744 89.088c17.408 8.192 36.864 8.192 54.272 1.024l115.712 80.896c-5.12 12.288-8.192 26.624-8.192 40.96 0 8.192 1.024 15.36 2.048 23.552l-70.656 25.6c-9.216-10.24-21.504-18.432-36.864-22.528-39.936-11.264-81.92 12.288-93.184 53.248-11.264 39.936 12.288 81.92 53.248 93.184 39.936 11.264 81.92-12.288 93.184-53.248 1.024-4.096 2.048-8.192 2.048-12.288l80.896-28.672c21.504 22.528 51.2 36.864 83.968 36.864h9.216l11.264 57.344c-21.504 17.408-33.792 45.056-30.72 73.728 4.096 47.104 46.08 80.896 93.184 76.8 47.104-4.096 80.896-46.08 76.8-93.184-4.096-41.984-37.888-73.728-78.848-76.8l-12.288-60.416c28.672-20.48 48.128-55.296 48.128-93.184 0-6.144-1.024-12.288-1.024-17.408l80.896-53.248c10.24 5.12 21.504 8.192 32.768 8.192 39.936 0 72.704-32.768 72.704-72.704-1.024-39.936-33.792-72.704-73.728-72.704zM529.408 559.104c-40.96 0-73.728-32.768-73.728-73.728s32.768-73.728 73.728-73.728 73.728 32.768 73.728 73.728c0 39.936-32.768 73.728-73.728 73.728z" p-id="9317" fill="url(#bg)"></path><path d="M530.432 485.376m-32.768 0a32.768 32.768 0 1 0 65.536 0 32.768 32.768 0 1 0-65.536 0Z" p-id="9318" fill="url(#bg)"></path></svg>