
<svg width="3000px" height="3000px" viewBox="0 0 3000 3000" version="1.1" xmlns="http://www.w3.org/2000/svg" xmlns:xlink="http://www.w3.org/1999/xlink">
    <g id="Page-1" stroke="none" stroke-width="1" fill="none" fill-rule="evenodd">
        <rect id="Rectangle" stroke="#FFFF00" fill="#FFFFFF" x="0.5" y="0.5" width="2999" height="2999"></rect>
        <g id="hsbc" transform="translate(250.000000, 1101.000000)" fill-rule="nonzero">
            <path d="M322.841276,236.697164 C322.499886,236.697164 322.841276,388.84337 322.841276,388.84337 C322.841276,407.961218 306.340753,424.632437 284.833174,424.632437 L264.235969,424.632437 L264.235969,432.427511 L438.743229,432.427511 L438.743229,424.632437 L418.146024,424.632437 C396.922937,424.632437 380.19482,407.619828 380.19482,388.84337 L380.19482,49.9567572 C380.19482,31.4078929 396.581547,14.1107925 418.146024,14.1107925 L438.743229,14.1107925 L438.743229,6.3157176 L264.235969,6.3157176 L264.235969,14.0538941 L284.833174,14.0538941 C306.682143,14.0538941 322.841276,31.4078929 322.841276,49.8998589 L322.841276,215.132687 L116.015749,215.132687 L116.015749,49.8998589 C116.015749,31.3509946 132.743866,14.0538941 153.966953,14.0538941 L174.564159,14.0538941 L174.564159,6.3157176 L0,6.3157176 L0,14.0538941 L20.6541035,14.0538941 C42.1616824,14.0538941 58.6053075,31.4078929 58.6053075,49.8998589 L58.6053075,388.786472 C58.6053075,407.619828 42.1616824,424.575538 20.6541035,424.575538 L0,424.575538 L0,432.370613 L174.50726,432.370613 L174.50726,424.632437 L153.910055,424.632437 C132.686968,424.632437 115.958851,407.619828 115.958851,388.84337 C115.958851,388.84337 116.243343,236.697164 115.958851,236.697164 L322.841276,236.697164 Z M737.857891,320.963631 C739.394146,345.998908 723.860895,383.950112 702.296418,403.466248 C677.923943,426.035283 645.898442,438.520144 612.681506,438.402672 C567.845601,438.402672 529.325413,414.504529 515.271519,409.042287 C506.679867,405.855979 495.527789,406.254267 488.92758,410.350949 C481.132505,415.073513 476.353043,422.868588 474.532296,437.263872 L467.988984,437.263872 L467.988984,289.555738 L474.532296,289.555738 C480.506623,335.017525 501.72971,361.645956 514.930129,376.894715 C536.437708,401.6455 577.063134,415.699395 616.209204,409.440575 C647.332605,404.376622 681.357822,370.635896 677.602531,328.815604 C676.293869,313.737539 672.936866,291.831672 641.585871,271.291365 C621.89904,258.432336 593.961946,240.224862 567.447312,222.64327 C534.047977,200.452911 503.721153,176.441804 495.129501,166.712185 C484.034321,154.023852 470.094224,135.645683 470.094224,106.343029 C470.094224,81.3077518 479.596249,52.5740817 499.965861,33.4562338 C520.278574,14.3383859 547.760481,0 587.191042,0 C626.621603,0 656.550139,20.9385953 666.678046,25.7180573 C675.450657,29.9460829 685.671834,29.9460829 694.444444,25.7180573 C700.760162,22.1334608 704.913742,16.6712185 706.73449,2.44662934 L713.220902,2.44662934 L713.220902,142.245892 L706.73449,142.245892 C700.760162,96.8410032 681.016432,62.7588875 667.24703,50.1843507 C653.477628,37.6098138 626.621603,20.3127134 586.56516,28.1077882 C548.215668,35.5045746 529.496108,52.9154718 525.96841,83.6405845 C523.237289,107.025809 535.982521,121.53489 543.322409,130.297237 C558.286677,148.220219 653.079339,201.932268 695.9807,239.086895 C718.171059,258.204743 735.46816,280.907187 737.857891,320.963631 L737.857891,320.963631 Z M1014.27011,214.848195 C1090.17252,240.907643 1111.85079,294.562793 1097.74,349.754199 C1081.18258,414.732123 1007.95439,427.98944 984.170877,431.175748 C973.473986,432.48441 946.105876,432.370613 919.022259,432.370613 C870.715554,432.427511 809.663617,432.256816 760.617233,432.256816 L760.617233,424.461742 L785.709409,424.461742 C801.697847,424.461742 819.962219,411.033729 819.962219,390.721016 L819.962219,50.5257408 C819.962219,30.2130274 801.697847,16.4436251 785.880104,16.4436251 L760.787928,16.4436251 L760.787928,8.59165187 L912.308253,8.59165187 C948.780099,8.59165187 968.580727,12.11935 981.325959,14.6228777 C1002.83354,18.7764577 1065.59243,37.325322 1080.55669,95.8737312 C1092.10706,141.27862 1069.51841,198.461468 1014.27011,214.848195 L1014.27011,214.848195 Z M876.74678,202.89954 C897.685375,208.247986 959.249397,209.670445 983.146707,194.535482 C1020.58583,170.751969 1033.55865,132.63007 1026.67395,98.8324457 C1022.67801,77.8632565 1010.73142,59.2502253 993.331513,46.884246 C956.859666,21.1661887 904.285584,25.3197688 876.803678,33.6838272 L876.803678,202.89954 L876.74678,202.89954 Z M876.74678,408.359507 C906.277027,417.520142 962.435705,424.51864 1001.63867,396.524648 C1048.63672,362.89772 1058.53703,280.679594 992.136647,237.835131 C965.451318,220.594929 898.823342,221.789795 876.689881,226.967545 L876.689881,408.359507 L876.74678,408.359507 L876.74678,408.359507 Z M1497.16646,13.7694023 L1503.31148,158.120533 L1494.71983,158.405025 C1490.50935,121.933179 1476.85375,96.2151213 1459.44285,79.5439028 C1454.4358,74.7075424 1444.99067,64.9210251 1431.33506,56.3293732 C1402.69099,37.7907563 1368.12257,30.7024019 1334.49406,36.4718467 C1274.1249,47.2256361 1243.0584,87.1113842 1227.58205,125.517775 C1208.4073,172.743411 1196.28795,253.425281 1228.66312,321.589512 C1255.06395,376.837817 1305.64659,399.824753 1344.62197,405.742182 C1377.90751,410.863034 1451.64778,409.326779 1507.86335,333.424371 L1516.79639,339.398698 C1473.15536,400.96272 1415.17593,440.393281 1348.77555,439.824298 C1263.997,439.027721 1210.68324,392.371068 1186.27384,364.490874 C1160.55578,335.245118 1140.86895,279.655424 1140.5822,231.178024 C1140.41376,188.162866 1149.91579,140.197551 1165.33525,112.20356 C1191.96368,64.1244481 1247.55337,16.27293 1320.72466,9.16063544 C1375.51778,3.69839319 1411.53443,14.509081 1442.31645,32.0906732 C1457.7359,40.9099185 1466.38445,41.9340889 1474.74851,38.4063908 C1483.05567,34.8217943 1489.82657,27.6526014 1489.82657,13.5418089 L1497.16646,13.5418089 L1497.16646,13.7694023 L1497.16646,13.7694023 Z" id="Shape" fill="#000000"></path>
            <path d="M1643.85043,219.570759 L1856.76408,432.48441 L1856.76408,6.65710774 L1643.85043,219.570759 L1643.85043,219.570759 Z M1856.76408,432.48441 L2282.59138,432.48441 L2069.67773,219.570759 L1856.76408,432.48441 L1856.76408,432.48441 Z M2069.67773,219.570759 L2282.59138,6.65710774 L1856.76408,6.65710774 L2069.67773,219.570759 L2069.67773,219.570759 Z" id="Shape" fill="#CF4037"></path>
            <path d="M2282.59138,6.65710774 L2282.59138,432.48441 L2495.50503,219.570759 L2282.59138,6.65710774 Z M321.020529,721.015977 C321.020529,701.044654 332.4002,684.828622 351.574947,684.828622 C373.879102,684.828622 383.153535,700.646365 382.641449,721.015977 L321.020529,721.015977 Z M1780.17889,734.387091 C1780.74787,756.91884 1775.68392,780.47476 1748.42961,780.47476 C1734.8309,780.47476 1724.4185,772.907278 1724.4185,757.886112 C1724.4185,740.133825 1743.02426,735.12677 1757.13505,734.387091 L1780.17889,734.387091 Z M1455.57376,732.566343 C1455.57376,706.620693 1464.44991,684.828622 1491.93181,684.828622 C1519.29992,684.828622 1528.28986,706.677591 1528.28986,732.566343 C1528.28986,758.625791 1519.29992,780.417972 1491.93181,780.417972 C1464.44991,780.47476 1455.57376,758.625791 1455.57376,732.566343 Z M1029.86026,732.395648 C1029.86026,709.579407 1036.63116,684.145842 1064.28376,684.145842 C1090.45701,684.145842 1098.76417,710.262188 1098.76417,732.395648 C1098.76417,755.211889 1092.16396,781.100642 1064.28376,781.100642 C1038.33811,781.100642 1029.86026,755.211889 1029.86026,732.395648 Z M734.387091,732.566343 C734.387091,706.620693 743.377031,684.828622 770.745141,684.828622 C798.227047,684.828622 807.160089,706.677591 807.160089,732.566343 C807.160089,758.625791 798.227047,780.417972 770.745141,780.417972 C743.377031,780.47476 734.387091,758.625791 734.387091,732.566343 Z M58.7760025,639.19614 L0,639.19614 L0,618.314443 L141.733807,618.314443 L141.733807,639.19614 L83.0147025,639.19614 L83.0147025,793.504484 L58.7760025,793.504484 L58.7760025,639.19614 L58.7760025,639.19614 Z M2398.32264,793.504484 L2398.32264,618.314443 L2421.36647,618.314443 L2421.36647,721.414266 L2466.99895,671.685102 L2496.81369,671.685102 L2445.37758,723.405708 L2499.9431,793.504484 L2470.12836,793.504484 L2421.87856,727.786882 L2421.36647,727.786882 L2421.36647,793.504484 L2398.32264,793.504484 L2398.32264,793.504484 Z M2277.24293,689.721881 L2277.75502,689.721881 C2285.55009,674.359325 2302.5058,668.100505 2314.56826,668.100505 C2323.04611,668.100505 2360.71282,670.262643 2360.71282,709.351814 L2360.71282,793.504484 L2337.66899,793.504484 L2337.66899,716.919295 C2337.66899,696.777277 2329.13423,685.852793 2309.73189,685.852793 C2309.73189,685.852793 2297.15736,685.056216 2287.42774,694.785835 C2284.01384,698.199736 2277.69812,703.491283 2277.69812,727.274796 L2277.69812,793.504484 L2254.65429,793.504484 L2254.65429,671.685102 L2277.18603,671.685102 L2277.18603,689.721881 L2277.24293,689.721881 L2277.24293,689.721881 Z M2194.85411,734.387091 C2195.3093,756.91884 2190.24535,780.47476 2163.04793,780.47476 C2149.44922,780.47476 2139.03682,772.907278 2139.03682,757.886112 C2139.03682,740.133825 2157.69949,735.12677 2171.75338,734.387091 L2194.85411,734.387091 L2194.85411,734.387091 Z M2173.97242,718.284856 C2145.12495,718.284856 2114.79812,728.242068 2114.79812,762.494879 C2114.79812,786.221494 2136.13501,797.145978 2157.2443,797.145978 C2173.97242,797.145978 2187.57112,790.602667 2195.08171,775.297009 L2195.53689,775.297009 C2195.76449,780.873048 2196.27657,786.221494 2196.78866,791.797533 C2196.95935,794.756247 2201.16983,793.504484 2203.27507,793.504484 L2218.80832,793.504484 C2217.84105,773.134872 2217.84105,709.522509 2217.84105,709.522509 C2217.84105,675.55419 2193.09026,668.043607 2168.11188,668.043607 C2144.10078,668.043607 2123.21908,677.488734 2121.96732,704.174063 L2146.31981,704.174063 C2146.54741,691.542628 2157.41499,684.771724 2169.07916,684.771724 C2193.60235,684.771724 2194.79721,697.118667 2194.79721,718.227958 L2173.97242,718.227958 L2173.97242,718.284856 L2173.97242,718.284856 Z M2064.95516,732.566343 C2064.95516,755.439483 2056.47731,780.417862 2030.53166,780.417862 C2002.59457,780.417862 1996.10815,755.439483 1996.10815,732.566343 C1996.10815,710.603578 2004.35841,684.828622 2030.53166,684.828622 C2058.18426,684.828622 2064.95516,709.863899 2064.95516,732.566343 Z M1996.56334,775.297009 L1996.10815,774.102144 L1996.56334,774.102144 C2004.8136,791.114753 2020.85894,797.145978 2038.55433,797.145978 C2074.68478,797.145978 2089.25076,763.917338 2089.25076,732.566343 C2089.25076,699.565297 2072.23815,668.100505 2034.40075,668.100505 C2018.92439,668.100505 2003.61874,673.676544 1996.50644,688.242524 L1996.05125,688.242524 L1996.05125,618.314443 L1973.00742,618.314443 L1973.00742,774.102144 C1973.00742,778.881606 1972.26774,786.221494 1971.75566,793.504484 L1995.53917,793.504484 L1996.56334,775.297009 L1996.56334,775.297009 Z M1842.0274,793.504484 L1842.0274,618.314443 L1865.01434,618.314443 L1865.01434,793.504484 L1842.0274,793.504484 Z M1759.35409,718.284856 C1730.50662,718.284856 1700.1798,728.242068 1700.1798,762.494879 C1700.1798,786.221494 1721.57358,797.145978 1742.62597,797.145978 C1759.35409,797.145978 1772.9528,790.602667 1780.46338,775.297009 L1780.91857,775.297009 C1781.25996,780.873048 1781.65825,786.221494 1782.11343,791.797533 C1782.34103,794.756247 1786.5515,793.504484 1788.65674,793.504484 L1804.18999,793.504484 C1803.22272,773.134872 1803.22272,709.522509 1803.22272,709.522509 C1803.22272,675.55419 1778.47194,668.043607 1753.43666,668.043607 C1729.42555,668.043607 1708.54386,677.488734 1707.34899,704.174063 L1731.64459,704.174063 C1731.87218,691.542628 1742.73977,684.771724 1754.40393,684.771724 C1778.92712,684.771724 1780.06509,697.118667 1780.06509,718.227958 L1759.35409,718.227958 L1759.35409,718.284856 L1759.35409,718.284856 Z M1656.02667,710.774273 C1654.83181,695.468615 1647.54882,684.828622 1631.10519,684.828622 C1609.02863,684.828622 1600.49388,703.94647 1600.49388,732.566343 C1600.49388,761.243115 1608.97173,780.417862 1631.10519,780.417862 C1646.41085,780.417862 1655.85598,770.403751 1657.05084,752.992854 L1680.09468,752.992854 C1678.16013,780.417862 1657.79052,797.145978 1630.8207,797.145978 C1591.73153,797.145978 1576.25518,769.436479 1576.25518,733.590514 C1576.25518,697.915244 1594.23506,668.100505 1632.81214,668.100505 C1658.5302,668.100505 1677.87564,684.373435 1679.12741,710.774273 L1656.02667,710.774273 L1656.02667,710.774273 Z M1491.93181,668.100505 C1451.87537,668.100505 1431.27816,694.785835 1431.27816,732.566343 C1431.27816,770.460649 1451.93227,797.145978 1491.93181,797.145978 C1531.93136,797.145978 1552.64236,770.403751 1552.64236,732.566343 C1552.64236,694.785835 1531.93136,668.100505 1491.93181,668.100505 L1491.93181,668.100505 Z M1374.94879,793.504484 L1374.94879,618.314443 L1397.99263,618.314443 L1397.99263,793.504484 L1374.94879,793.504484 Z M1227.18376,668.100505 C1250.22759,668.100505 1276.17324,677.773226 1274.46629,705.425827 L1250.22759,705.425827 C1251.19487,689.949474 1239.30311,684.828622 1225.932,684.828622 C1213.52815,684.828622 1203.57094,690.689153 1203.57094,704.230962 C1203.57094,717.829669 1224.45264,718.796941 1233.15809,721.471164 C1253.81219,728.298967 1277.5957,730.688698 1277.5957,758.170604 C1277.5957,787.985343 1248.52064,797.259775 1223.48537,797.259775 C1197.938,797.259775 1176.65802,785.595612 1176.88561,757.487824 L1201.12431,757.487824 C1201.6364,772.565888 1211.8212,780.531658 1225.8751,780.531658 C1239.41691,780.531658 1253.3001,775.126314 1253.3001,759.36547 C1253.3001,732.168055 1179.27534,752.594565 1179.27534,705.027539 C1179.38914,679.480177 1205.1072,668.100505 1227.18376,668.100505 L1227.18376,668.100505 Z M1162.60412,618.371341 L1190.76881,618.371341 L1163.62829,677.773226 L1147.12777,677.773226 L1162.60412,618.371341 Z M1098.53657,688.299422 L1098.02449,688.299422 C1090.96909,673.676544 1075.72033,668.157404 1060.18708,668.157404 C1022.34967,668.157404 1005.62156,699.679093 1005.62156,732.623242 C1005.62156,763.974236 1019.90305,797.202877 1056.0904,797.202877 C1073.84269,797.202877 1089.83113,791.171651 1098.02449,774.159042 L1098.53657,774.159042 L1098.53657,775.353908 L1099.21935,793.561382 L1122.77527,793.561382 C1122.32009,786.505986 1121.58041,779.279894 1121.58041,771.996905 L1121.58041,618.371341 L1098.53657,618.371341 L1098.53657,688.299422 Z M949.292184,793.504484 L949.292184,618.314443 L972.336019,618.314443 L972.336019,793.504484 L949.292184,793.504484 Z M883.574582,793.504484 L860.530748,793.504484 L860.530748,671.685102 L883.574582,671.685102 L883.574582,695.241021 L884.086668,695.241021 C887.500569,678.456006 902.976922,670.035049 919.761937,670.035049 C922.663753,670.035049 925.110383,670.205744 927.784606,670.205744 L927.784606,691.997815 C924.598298,690.859848 920.956803,690.859848 917.827393,690.859848 C888.752333,691.770222 883.574582,707.360371 883.574582,733.078429 L883.574582,793.504484 L883.574582,793.504484 Z M770.745141,668.100505 C730.745596,668.100505 710.091493,694.785835 710.091493,732.566343 C710.091493,770.460649 730.745596,797.145978 770.745141,797.145978 C810.858482,797.145978 831.455688,770.403751 831.455688,732.566343 C831.455688,694.785835 810.858482,668.100505 770.745141,668.100505 Z M695.810005,671.742 L652.851746,793.561382 L626.678502,793.561382 L598.286221,693.306477 L597.774136,693.306477 L566.252447,793.561382 L539.339524,793.561382 L499.055487,671.742 L524.033866,671.742 L553.393418,769.834767 L553.905503,769.834767 L584.232327,671.742 L614.047066,671.742 L641.472074,767.843325 L641.984159,767.843325 L672.310984,671.742 L695.810005,671.742 L695.810005,671.742 Z M406.880149,737.004415 L406.880149,725.624744 C406.880149,691.82712 389.639947,668.783286 353.281897,668.100505 C314.704811,668.100505 296.724931,697.915244 296.724931,733.590514 C296.724931,769.436479 312.258182,797.145978 351.290455,797.145978 C380.422413,797.145978 401.816196,783.319678 405.400792,755.610178 L381.162092,755.610178 C378.544768,773.362465 369.554827,780.47476 351.574947,780.47476 C328.075925,780.47476 319.313578,758.398197 321.020529,737.004415 L406.880149,737.004415 L406.880149,737.004415 Z M161.36374,793.504484 L161.36374,618.314443 L184.407574,618.314443 L184.407574,687.958032 L184.91966,687.958032 C193.625108,674.359325 206.71173,668.043607 224.407119,668.043607 C256.156402,668.043607 266.113615,689.152897 266.113615,710.944968 L266.113615,793.447585 L243.126679,793.447585 L243.126679,721.471164 C243.126679,700.13428 237.55064,686.251081 215.929264,685.852793 C206.71173,685.568301 192.600938,692.623697 188.276663,702.751605 C182.928217,715.439938 184.407574,724.145387 184.407574,730.916291 L184.407574,793.504484 L161.36374,793.504484 L161.36374,793.504484 Z" id="Shape" fill="#CF4037"></path>
        </g>
    </g>
</svg>